<svg width="48" height="48" viewBox="0 0 48 48" fill="none" xmlns="http://www.w3.org/2000/svg">
<path d="M24 0C10.7453 0 0 10.7453 0 24C0 37.2547 10.7453 48 24 48C37.2547 48 48 37.2547 48 24C47.9852 10.7516 37.2484 0.0148438 24 0ZM24 46.4C11.6289 46.4 1.6 36.3711 1.6 24C1.6 11.6289 11.6289 1.6 24 1.6C36.3711 1.6 46.4 11.6289 46.4 24C46.3859 36.3652 36.3652 46.3859 24 46.4Z" fill="#2B313E"/>
<path d="M24 12C18.4796 12.0055 14.0061 16.0317 14 21.0001C14 27.2386 23.0267 35.4348 23.4108 35.7805C23.7363 36.0732 24.2637 36.0732 24.5892 35.7805C24.9733 35.4348 34 27.2386 34 21.0001C33.9939 16.0317 29.5204 12.0055 24 12ZM24 34.1652C22.009 32.2502 15.6667 25.7657 15.6667 21.0001C15.6667 16.8578 19.3975 13.5 24 13.5C28.6025 13.5 32.3333 16.8578 32.3333 21.0001C32.3333 25.7613 25.9902 32.2502 24 34.1652Z" fill="#2B313E"/>
</svg>
