<svg width="48" height="48" viewBox="0 0 48 48" fill="none" xmlns="http://www.w3.org/2000/svg">
<path d="M24 0C10.7453 0 0 10.7453 0 24C0 37.2547 10.7453 48 24 48C37.2547 48 48 37.2547 48 24C47.9852 10.7516 37.2484 0.0148438 24 0ZM24 46.4C11.6289 46.4 1.6 36.3711 1.6 24C1.6 11.6289 11.6289 1.6 24 1.6C36.3711 1.6 46.4 11.6289 46.4 24C46.3859 36.3652 36.3652 46.3859 24 46.4Z" fill="#2B313E"/>
<path d="M35.2 14.3999H12.8C12.3582 14.3999 12 14.7581 12 15.1999V32.7999C12 33.2417 12.3582 33.5999 12.8 33.5999H35.2C35.6418 33.5999 36 33.2417 36 32.7999V15.1999C36 14.7581 35.6418 14.3999 35.2 14.3999ZM33.0398 15.9999L24 23.7464L14.9602 15.9999H33.0398ZM13.6 31.9999V16.939L23.4793 25.4069C23.7785 25.6632 24.2199 25.6632 24.5191 25.4069L34.4 16.939V31.9999H13.6Z" fill="#2B313E"/>
</svg>
