<svg width="47" height="48" viewBox="0 0 47 48" fill="none" xmlns="http://www.w3.org/2000/svg">
<path d="M23.5 0C10.5215 0 0 10.7453 0 24C0 37.2547 10.5215 48 23.5 48C36.4785 48 47 37.2547 47 24C46.9855 10.7516 36.4724 0.0148438 23.5 0ZM23.5 46.4C11.3866 46.4 1.56667 36.3711 1.56667 24C1.56667 11.6289 11.3866 1.6 23.5 1.6C35.6134 1.6 45.4333 11.6289 45.4333 24C45.4196 36.3652 35.6076 46.3859 23.5 46.4Z" fill="#2B313E"/>
<path d="M33.58 26.9266L27.0725 25.7266C26.743 25.6661 26.4144 25.8348 26.2597 26.1442L24.6818 29.2992C21.8898 28.009 19.6587 25.6797 18.4233 22.7657L21.444 21.1192C21.7405 20.9579 21.9022 20.6149 21.8442 20.2712L20.6941 13.4817C20.6582 13.2681 20.5406 13.079 20.3684 12.9575C18.7231 11.7997 16.5998 11.6833 14.8474 12.6552C13.095 13.6274 12 15.5294 12 17.6001C12.0109 27.7575 19.8994 35.9887 29.6339 36C31.6187 35.9996 33.4415 34.8563 34.3729 33.0274C35.3039 31.1981 35.1916 28.9821 34.0805 27.2657C33.9644 27.0868 33.784 26.9641 33.58 26.9266ZM29.6339 34.4C20.7462 34.3895 13.5435 26.8739 13.5334 17.6001C13.533 16.179 14.2555 14.8645 15.431 14.1466C16.6065 13.429 18.059 13.4161 19.2461 14.113L20.2374 19.9735L17.0939 21.6856C16.7495 21.8731 16.5938 22.2993 16.7312 22.6786C18.1328 26.5473 21.0588 29.6024 24.766 31.0664C25.1296 31.2098 25.538 31.0473 25.7177 30.6879L27.3592 27.4078L32.9758 28.4426C33.6421 29.6809 33.6286 31.1949 32.9413 32.4207C32.2536 33.6461 30.995 34.3996 29.6339 34.4Z" fill="#2B313E"/>
</svg>
