<svg width="24" height="24" viewBox="0 0 24 24" fill="none" xmlns="http://www.w3.org/2000/svg">
<path d="M12 0C5.37266 0 0 5.37266 0 12C0 18.6273 5.37266 24 12 24C18.6273 24 24 18.6273 24 12C23.9926 5.37578 18.6242 0.0074219 12 0ZM12 23.2C5.81445 23.2 0.8 18.1855 0.8 12C0.8 5.81445 5.81445 0.8 12 0.8C18.1855 0.8 23.2 5.81445 23.2 12C23.193 18.1826 18.1826 23.193 12 23.2Z" fill="#E4E7E8"/>
<path d="M17.2588 13.4633L13.8637 12.8633C13.6918 12.833 13.5203 12.9174 13.4396 13.0721L12.6164 14.6496C11.1598 14.0045 9.9957 12.8399 9.35117 11.3828L10.9271 10.5596C11.0818 10.4789 11.1662 10.3074 11.1359 10.1356L10.5359 6.74083C10.5172 6.63399 10.4559 6.53946 10.366 6.47872C9.50762 5.89981 8.39981 5.84161 7.48555 6.32755C6.57129 6.81368 6 7.76466 6 8.80001C6.00566 13.8787 10.1213 17.9944 15.2 18C16.2355 17.9998 17.1865 17.4281 17.6725 16.5137C18.1582 15.599 18.0996 14.491 17.5199 13.6328C17.4594 13.5434 17.3652 13.482 17.2588 13.4633ZM15.2 17.2C10.5631 17.1947 6.80527 13.4369 6.8 8.80001C6.7998 8.08946 7.17676 7.43224 7.79004 7.07325C8.40332 6.71446 9.16113 6.70802 9.78047 7.05646L10.2977 9.98673L8.65762 10.8428C8.47793 10.9365 8.39668 11.1496 8.46836 11.3393C9.19961 13.2736 10.7262 14.8012 12.6604 15.5332C12.85 15.6049 13.0631 15.5237 13.1568 15.344L14.0133 13.7039L16.9436 14.2213C17.2912 14.8404 17.2842 15.5975 16.9256 16.2104C16.5668 16.8231 15.9102 17.1998 15.2 17.2Z" fill="#E4E7E8"/>
</svg>
