<svg width="24" height="24" viewBox="0 0 24 24" fill="none" xmlns="http://www.w3.org/2000/svg">
<path d="M12 24C18.6274 24 24 18.6274 24 12C24 5.37258 18.6274 0 12 0C5.37258 0 0 5.37258 0 12C0 18.6274 5.37258 24 12 24Z" fill="#F0F0F0"/>
<path d="M2.48032 4.69416C1.53771 5.92055 0.826945 7.33407 0.413086 8.86965H6.6558L2.48032 4.69416Z" fill="#0052B4"/>
<path d="M23.5864 8.86964C23.1725 7.33411 22.4617 5.92059 21.5191 4.6942L17.3438 8.86964H23.5864Z" fill="#0052B4"/>
<path d="M0.413086 15.1305C0.826992 16.666 1.53776 18.0795 2.48032 19.3059L6.65566 15.1305H0.413086Z" fill="#0052B4"/>
<path d="M19.3053 2.48067C18.0789 1.53806 16.6655 0.827297 15.1299 0.413391V6.65606L19.3053 2.48067Z" fill="#0052B4"/>
<path d="M4.69385 21.5193C5.92024 22.4619 7.33376 23.1727 8.86929 23.5866V17.344L4.69385 21.5193Z" fill="#0052B4"/>
<path d="M8.86924 0.413391C7.33371 0.827297 5.92019 1.53806 4.69385 2.48063L8.86924 6.65602V0.413391Z" fill="#0052B4"/>
<path d="M15.1299 23.5866C16.6654 23.1727 18.0789 22.4619 19.3053 21.5194L15.1299 17.344V23.5866Z" fill="#0052B4"/>
<path d="M17.3438 15.1305L21.5191 19.3059C22.4617 18.0796 23.1725 16.666 23.5864 15.1305H17.3438Z" fill="#0052B4"/>
<path d="M23.8984 10.4348H13.5653H13.5653V0.101578C13.0529 0.034875 12.5305 0 12 0C11.4694 0 10.9471 0.034875 10.4348 0.101578V10.4347V10.4347H0.101578C0.034875 10.9471 0 11.4695 0 12C0 12.5306 0.034875 13.0529 0.101578 13.5652H10.4347H10.4347V23.8984C10.9471 23.9651 11.4694 24 12 24C12.5305 24 13.0529 23.9652 13.5652 23.8984V13.5653V13.5653H23.8984C23.9651 13.0529 24 12.5306 24 12C24 11.4695 23.9651 10.9471 23.8984 10.4348Z" fill="#D80027"/>
<path d="M15.1304 15.1305L20.4852 20.4853C20.7315 20.2391 20.9664 19.9817 21.1906 19.7149L16.6061 15.1305H15.1304V15.1305Z" fill="#D80027"/>
<path d="M8.86951 15.1305H8.86941L3.51465 20.4853C3.76084 20.7315 4.01823 20.9665 4.28504 21.1906L8.86951 16.6061V15.1305Z" fill="#D80027"/>
<path d="M8.86976 8.86964V8.86955L3.51495 3.51469C3.26866 3.76087 3.03373 4.01826 2.80957 4.28508L7.39409 8.86959H8.86976V8.86964Z" fill="#D80027"/>
<path d="M15.1304 8.86964L20.4852 3.51473C20.239 3.26845 19.9817 3.03352 19.7148 2.80941L15.1304 7.39392V8.86964Z" fill="#D80027"/>
</svg>
