<svg width="37" height="36" viewBox="0 0 37 36" fill="none" xmlns="http://www.w3.org/2000/svg">
<path d="M0.454102 0V35.2614H36.1985V0H0.454102ZM33.9875 33.0803H2.6651V2.18112H33.9875V33.0803Z" fill="#3F88C5"/>
<path d="M24.0775 6.18311H12.5759C9.34685 6.18311 6.72021 8.7746 6.72021 11.9597V23.3058C6.72021 26.4912 9.34685 29.082 12.5759 29.082H24.0775C27.3065 29.082 29.9328 26.4912 29.9328 23.3058V11.9597C29.9328 8.7746 27.3065 6.18311 24.0775 6.18311ZM27.4069 23.3058C27.4069 25.117 25.9131 26.5906 24.0775 26.5906H12.5759C10.7402 26.5906 9.24645 25.117 9.24645 23.3058V11.9597C9.24645 10.1488 10.7402 8.67556 12.5759 8.67556H24.0775C25.9131 8.67556 27.4069 10.1488 27.4069 11.9597V23.3058Z" fill="#3F88C5"/>
<path d="M24.497 12.9547C23.7168 12.9547 23.082 12.3288 23.082 11.5592C23.082 10.7899 23.7168 10.1641 24.497 10.1641C25.2772 10.1641 25.9116 10.7899 25.9116 11.5592C25.9116 12.3288 25.2772 12.9547 24.497 12.9547Z" fill="#3F88C5"/>
<path d="M18.3262 11.7351C15.0302 11.7351 12.3481 14.3806 12.3481 17.6324C12.3481 20.8842 15.0302 23.53 18.3262 23.53C21.6229 23.53 24.3049 20.8842 24.3049 17.6324C24.3049 14.3809 21.6229 11.7351 18.3262 11.7351ZM18.3262 21.0386C16.4236 21.0386 14.874 19.5103 14.874 17.6324C14.874 15.7551 16.4236 14.2276 18.3262 14.2276C20.2299 14.2276 21.7783 15.7551 21.7783 17.6324C21.7783 19.5103 20.2299 21.0386 18.3262 21.0386Z" fill="#3F88C5"/>
</svg>
