<svg width="78" height="49" viewBox="0 0 78 49" fill="none" xmlns="http://www.w3.org/2000/svg">
<g clip-path="url(#clip0_7186_808)">
<path fill-rule="evenodd" clip-rule="evenodd" d="M43.7502 11.7369H42.0994L40.9926 15.2835V11.7369H39.3418V19.5966H41.0724L42.0994 16.0209V19.5966H43.7502V11.7369ZM47.1035 11.7418V14.5513H46.5126V11.7418H44.5381V19.5966H46.5126V16.2974H47.1035V19.5971H49.0779V11.7418H47.1035ZM56.9754 15.6134C56.9856 15.2416 56.9621 14.8697 56.9051 14.5023C56.8392 14.1883 56.6957 13.8962 56.4877 13.6533C56.1625 13.2717 55.5387 13.0808 54.6164 13.0808C54.5445 13.0808 54.4288 13.0759 54.2693 13.0662V11.7369H52.2904V13.0659C52.1559 13.0756 52.0543 13.0804 51.9856 13.0805C51.0633 13.0805 50.438 13.2713 50.1096 13.653C49.9016 13.8959 49.7581 14.188 49.6923 14.502C49.6352 14.8694 49.6117 15.2413 49.622 15.6131V15.7489C49.6117 16.1207 49.6352 16.4926 49.6923 16.86C49.7581 17.174 49.9016 17.4661 50.1096 17.709C50.4411 18.1004 51.0664 18.2961 51.9856 18.2961H52.2904V19.5963H54.2692V18.2964H54.6163C55.532 18.2964 56.1558 18.1007 56.4876 17.7093C56.6955 17.4664 56.8391 17.1743 56.905 16.8603C56.962 16.4929 56.9855 16.121 56.9753 15.7492V15.6134H56.9754ZM54.8487 16.8311C54.8129 16.9018 54.759 16.9615 54.6926 17.0042C54.6263 17.0468 54.5499 17.0708 54.4712 17.0737H54.2692V14.2889H54.4709C54.5496 14.2918 54.626 14.3158 54.6923 14.3584C54.7587 14.4011 54.8126 14.4608 54.8484 14.5314C54.9587 14.7277 55.0116 14.9514 55.0009 15.1767V16.1907C55.0113 16.4144 54.9585 16.6365 54.8487 16.8311ZM52.1263 17.0737C52.0484 17.0703 51.9728 17.046 51.9073 17.0034C51.8418 16.9608 51.7887 16.9013 51.7535 16.8311C51.6435 16.6366 51.5907 16.4145 51.6011 16.1907V15.1767C51.5903 14.9514 51.6432 14.7277 51.7535 14.5314C51.7887 14.4613 51.8418 14.4018 51.9073 14.3592C51.9728 14.3166 52.0484 14.2923 52.1263 14.2889H52.2904V17.0734H52.1263V17.0737ZM62.0363 14.9972C62.0363 14.1886 62.0176 13.6226 61.9801 13.2991C61.9419 12.9743 61.8207 12.6651 61.6283 12.4019C61.4304 12.1262 61.16 11.9119 60.8476 11.7832C60.5 11.6412 60.1276 11.5711 59.7526 11.5771C59.3663 11.5687 58.9827 11.6431 58.627 11.7954C58.3194 11.9292 58.0541 12.1457 57.8603 12.4212C57.6732 12.6872 57.5569 12.997 57.5225 13.3212C57.4865 13.6496 57.4686 14.2084 57.4687 14.9975V16.3414C57.4687 17.15 57.4874 17.7161 57.5249 18.0395C57.563 18.3642 57.6842 18.6734 57.8767 18.9366C58.0743 19.2124 58.3445 19.4268 58.6567 19.5556C59.0044 19.6978 59.3768 19.7679 59.7518 19.7619C60.1381 19.7702 60.5217 19.6958 60.8774 19.5435C61.185 19.4097 61.4502 19.1932 61.6442 18.9176C61.8311 18.6517 61.9474 18.3418 61.9818 18.0176C62.0178 17.6895 62.0357 17.1307 62.0357 16.3414V14.9972H62.0363ZM60.0619 17.3698C60.0619 17.8323 60.0431 18.125 60.0056 18.2479C59.9914 18.3046 59.9576 18.3543 59.9104 18.3881C59.8631 18.4219 59.8054 18.4375 59.7477 18.4322C59.694 18.4388 59.6397 18.4264 59.594 18.3972C59.5483 18.3681 59.5139 18.3239 59.4968 18.2721C59.4608 18.1658 59.4428 17.8844 59.4428 17.428V13.7601C59.4428 13.3557 59.4702 13.1123 59.5249 13.0298C59.5503 12.9901 59.5855 12.9577 59.6271 12.936C59.6688 12.9143 59.7153 12.904 59.7621 12.9061C59.8135 12.901 59.865 12.9133 59.9088 12.9409C59.9525 12.9686 59.9859 13.0101 60.0037 13.059C60.0428 13.1608 60.0623 13.3945 60.0623 13.7601V17.3697L60.0619 17.3698ZM67.3823 14.416C67.3823 13.6828 67.323 13.1426 67.2044 12.7954C67.0859 12.4482 66.8373 12.1583 66.4588 11.9256C66.0804 11.693 65.6004 11.5767 65.019 11.5767C64.6283 11.569 64.2405 11.646 63.8817 11.8023C63.5736 11.9351 63.3065 12.1487 63.1079 12.4208C62.9306 12.6611 62.8154 12.942 62.7726 13.2383C62.7281 13.6612 62.7093 14.0865 62.7163 14.5118V16.8066C62.7163 17.5765 62.7772 18.1531 62.8992 18.5363C63.0232 18.9222 63.2904 19.2447 63.6448 19.4363C64.0203 19.6529 64.4971 19.7613 65.0752 19.7614C65.6318 19.7614 66.1 19.6334 66.4798 19.3775C66.8597 19.1215 67.1051 18.8235 67.2162 18.4835C67.3271 18.1433 67.3825 17.5668 67.3826 16.7538V16.4476H65.4079V17.4346C65.4079 17.8658 65.3853 18.1398 65.34 18.2566C65.3176 18.3137 65.2773 18.3618 65.2251 18.3934C65.173 18.425 65.112 18.4384 65.0515 18.4315C64.99 18.4395 64.9277 18.4267 64.8742 18.395C64.8208 18.3634 64.7792 18.3149 64.756 18.2569C64.7123 18.1404 64.6904 17.8912 64.6904 17.5092V13.8606C64.6904 13.4628 64.7123 13.2041 64.756 13.0844C64.7998 12.9647 64.903 12.9049 65.0655 12.9049C65.2093 12.9049 65.3023 12.9541 65.3446 13.0526C65.3869 13.151 65.408 13.3987 65.4079 13.7957V15.161H67.3823V14.4148V14.416ZM72.4052 13.6339C72.4052 12.9967 72.2152 12.5132 71.8353 12.1832C71.4554 11.8532 70.895 11.6883 70.154 11.6883C69.3503 11.6883 68.786 11.8242 68.461 12.0959C68.136 12.3675 67.9734 12.8705 67.9732 13.6047V14.2695H69.868V13.3671C69.868 13.0566 69.9836 12.9013 70.215 12.9012C70.3494 12.9012 70.4322 12.9506 70.4635 13.0493C70.5024 13.2218 70.5182 13.3989 70.5105 13.5756V14.9147H69.418V16.0598H70.5107V17.36C70.521 17.6597 70.5069 17.9598 70.4685 18.2572C70.4403 18.3802 70.3481 18.4417 70.1918 18.4416C69.9761 18.4416 69.8682 18.2831 69.8682 17.9661V16.7629H67.9732V17.379C67.9732 18.2103 68.1468 18.7974 68.4938 19.1402C68.8409 19.4831 69.4115 19.6548 70.2056 19.6553C70.9529 19.6553 71.5063 19.479 71.8658 19.1265C72.2253 18.7739 72.4051 18.2191 72.4052 17.4622V13.6342V13.6339ZM78.0001 11.7369H73.4651V17.5201C73.4651 17.879 73.4198 18.0892 73.329 18.1508C73.2383 18.2124 73.0726 18.2431 72.832 18.2429V19.5966H73.1413C73.7911 19.5966 74.2644 19.5642 74.5612 19.4995C74.7 19.4732 74.8313 19.4166 74.9461 19.3337C75.0608 19.2507 75.1562 19.1433 75.2253 19.0192C75.3712 18.7638 75.4442 18.3433 75.4442 17.7577V13.3088H76.021V19.5966H78.0001V11.7369Z" fill="#2F3465"/>
<path fill-rule="evenodd" clip-rule="evenodd" d="M18.5996 14.5709H15.9401C19.6735 11.6431 23.8815 9.25483 28.0241 7.72412C24.5507 9.50124 21.3714 11.8109 18.5996 14.5709ZM16.0001 17.4618C15.0333 18.6615 14.1607 19.9353 13.3901 21.2717C8.1535 30.4219 11.0739 37.8876 19.913 37.9469C23.6204 37.9717 27.7801 36.6891 31.747 34.5168C25.7951 38.444 19.1029 40.9503 13.5141 40.9503C3.61887 40.9503 0.930647 33.0949 7.50981 23.4039C8.99474 21.2482 10.7009 19.2565 12.5999 17.4618H16.0001Z" fill="#2F3465"/>
<path fill-rule="evenodd" clip-rule="evenodd" d="M24.3442 17.6979C19.8841 25.5567 22.0466 31.7728 29.1881 31.4529C32.8169 31.2903 36.952 29.4791 40.6816 26.7343C36.0585 31.5111 29.8079 34.8469 24.4558 34.9449C16.8574 35.0838 13.996 28.6454 18.0485 20.5959C21.5718 13.5966 29.1635 7.6887 36.0514 6.21143C31.4678 8.78417 27.0383 12.9506 24.3442 17.6979Z" fill="#2F3465"/>
<path fill-rule="evenodd" clip-rule="evenodd" d="M36.6468 2.69695C24.8859 2.69695 9.56038 12.3584 2.41648 24.2763C2.2891 24.4887 2.16618 24.7003 2.04582 24.9112C2.23686 24.4901 2.43835 24.0671 2.65028 23.6422C9.15306 10.6158 23.4485 0.0648906 35.1417 0.000292798C41.4016 -0.0341992 45.6757 2.98096 47.3688 7.85371C45.5772 4.63887 41.9181 2.69695 36.6468 2.69695ZM10.7764 45.8555C22.5374 45.8555 37.8629 36.1942 45.0068 24.2763C45.647 23.2139 46.224 22.1139 46.7347 20.9823C46.2895 22.2729 45.7702 23.5362 45.1796 24.766C38.4661 38.812 22.9781 49.6761 11.2023 48.9672C5.25511 48.6091 1.42663 45.4125 0 40.6034C1.7716 43.8756 5.45254 45.8555 10.7764 45.8555Z" fill="#DD0000"/>
<path d="M54.0236 24.1795H54.8542L53.9415 29.8983H52.8005L52.1616 25.6046L51.5318 29.8983H50.3908L49.478 24.1795H50.3269L50.9658 29.1492L51.7052 24.1795H52.6179L53.3573 29.1492L54.0236 24.1795Z" fill="#DD0000"/>
<path d="M56.1812 25.4402H57.0757C57.6477 25.4402 57.9337 25.7112 57.9337 26.2532V27.925H56.1355V28.9848C56.1355 29.0883 56.1538 29.1583 56.1903 29.1949C56.2268 29.2314 56.2998 29.2497 56.4093 29.2497H56.8292C56.9387 29.2497 57.0118 29.2314 57.0483 29.1949C57.0848 29.1583 57.103 29.0853 57.103 28.9756V28.6102H57.9063V29.0944C57.9063 29.6304 57.6233 29.8983 57.0574 29.8983H56.1812C55.6152 29.8983 55.3323 29.6304 55.3323 29.0944V26.2532C55.3323 25.7112 55.6152 25.4402 56.1812 25.4402ZM56.1355 27.3221H57.1213V26.3537C57.1213 26.2502 57.103 26.1801 57.0665 26.1436C57.0361 26.1071 56.9661 26.0888 56.8566 26.0888H56.4093C56.2998 26.0888 56.2268 26.1071 56.1903 26.1436C56.1538 26.1801 56.1355 26.2502 56.1355 26.3537V27.3221Z" fill="#DD0000"/>
<path d="M59.4612 29.8983H58.6397V23.7866H59.4612V29.8983Z" fill="#DD0000"/>
<path d="M61.0835 29.8983H60.262V23.7866H61.0835V29.8983Z" fill="#DD0000"/>
<path d="M64.8648 23.7866H65.6863V29.8983H64.8648V29.542C64.7857 29.7796 64.597 29.8983 64.2989 29.8983H63.9703C63.4226 29.8983 63.1488 29.6304 63.1488 29.0944V26.2441C63.1488 25.7021 63.4226 25.431 63.9703 25.431H64.2989C64.597 25.431 64.7857 25.5498 64.8648 25.7873V23.7866ZM64.2441 29.2314H64.5636C64.6731 29.2314 64.7492 29.2071 64.7917 29.1583C64.8404 29.1096 64.8648 29.0274 64.8648 28.9117V26.4177C64.8648 26.302 64.8404 26.2197 64.7917 26.171C64.7492 26.1223 64.6731 26.0979 64.5636 26.0979H64.2441C64.1346 26.0979 64.0615 26.1162 64.025 26.1527C63.9885 26.1893 63.9703 26.2593 63.9703 26.3629V28.9665C63.9703 29.0761 63.9885 29.1492 64.025 29.1858C64.0615 29.2162 64.1346 29.2314 64.2441 29.2314Z" fill="#DD0000"/>
<path d="M67.2868 25.4402H68.2635C68.8294 25.4402 69.1123 25.7112 69.1123 26.2532V29.0944C69.1123 29.6304 68.8294 29.8983 68.2635 29.8983H67.2868C66.727 29.8983 66.4471 29.6304 66.4471 29.0944V26.2532C66.4471 25.7112 66.727 25.4402 67.2868 25.4402ZM68.3 28.9756V26.3629C68.3 26.2532 68.2817 26.1801 68.2452 26.1436C68.2087 26.1071 68.1357 26.0888 68.0261 26.0888H67.5241C67.4146 26.0888 67.3416 26.1071 67.3051 26.1436C67.2746 26.1801 67.2594 26.2532 67.2594 26.3629V28.9756C67.2594 29.0853 67.2746 29.1583 67.3051 29.1949C67.3416 29.2314 67.4146 29.2497 67.5241 29.2497H68.0261C68.1357 29.2497 68.2087 29.2314 68.2452 29.1949C68.2817 29.1583 68.3 29.0853 68.3 28.9756Z" fill="#DD0000"/>
<path d="M71.2584 25.4402H71.5779C72.1316 25.4402 72.4085 25.7112 72.4085 26.2532V29.8983H71.587V26.372C71.587 26.2624 71.5687 26.1923 71.5322 26.1619C71.4957 26.1253 71.4227 26.1071 71.3132 26.1071H70.9937C70.8842 26.1071 70.8051 26.1314 70.7564 26.1801C70.7138 26.2289 70.6925 26.3111 70.6925 26.4268V29.8983H69.871V25.4402H70.6925V25.7965C70.7716 25.5589 70.9602 25.4402 71.2584 25.4402Z" fill="#DD0000"/>
<path d="M74.0354 25.4402H74.9299C75.5019 25.4402 75.7879 25.7112 75.7879 26.2532V27.925H73.9897V28.9848C73.9897 29.0883 74.008 29.1583 74.0445 29.1949C74.081 29.2314 74.154 29.2497 74.2635 29.2497H74.6834C74.793 29.2497 74.866 29.2314 74.9025 29.1949C74.939 29.1583 74.9573 29.0853 74.9573 28.9756V28.6102H75.7605V29.0944C75.7605 29.6304 75.4775 29.8983 74.9116 29.8983H74.0354C73.4694 29.8983 73.1865 29.6304 73.1865 29.0944V26.2532C73.1865 25.7112 73.4694 25.4402 74.0354 25.4402ZM73.9897 27.3221H74.9755V26.3537C74.9755 26.2502 74.9572 26.1801 74.9207 26.1436C74.8903 26.1071 74.8203 26.0888 74.7108 26.0888H74.2635C74.154 26.0888 74.081 26.1071 74.0445 26.1436C74.008 26.1801 73.9897 26.2502 73.9897 26.3537V27.3221Z" fill="#DD0000"/>
<path d="M76.5761 29.8983V28.7747H77.4979V29.8983H76.5761ZM76.5487 24.1795H77.5436L77.3884 28.0347H76.7038L76.5487 24.1795Z" fill="#DD0000"/>
</g>
<defs>
<clipPath id="clip0_7186_808">
<rect width="78" height="49" fill="white"/>
</clipPath>
</defs>
</svg>
