<svg width="78" height="49" viewBox="0 0 78 49" fill="none" xmlns="http://www.w3.org/2000/svg">
<g clip-path="url(#clip0_6914_4260)">
<path fill-rule="evenodd" clip-rule="evenodd" d="M43.7502 11.7368H42.0994L40.9926 15.2834V11.7368H39.3418V19.5964H41.0724L42.0994 16.0207V19.5964H43.7502V11.7368ZM47.1035 11.7416V14.5511H46.5126V11.7416H44.5381V19.5964H46.5126V16.2973H47.1035V19.5969H49.0779V11.7416H47.1035ZM56.9754 15.6132C56.9856 15.2415 56.9621 14.8696 56.9051 14.5022C56.8392 14.1882 56.6957 13.8961 56.4877 13.6532C56.1625 13.2715 55.5387 13.0807 54.6164 13.0806C54.5445 13.0806 54.4288 13.0758 54.2693 13.0661V11.7368H52.2904V13.0658C52.1559 13.0754 52.0543 13.0803 51.9856 13.0803C51.0633 13.0803 50.438 13.2712 50.1096 13.6529C49.9016 13.8957 49.7581 14.1879 49.6923 14.5019C49.6352 14.8693 49.6117 15.2412 49.622 15.6129V15.7488C49.6117 16.1205 49.6352 16.4924 49.6923 16.8598C49.7581 17.1739 49.9016 17.466 50.1096 17.7089C50.4411 18.1002 51.0664 18.2959 51.9856 18.2959H52.2904V19.5961H54.2692V18.2962H54.6163C55.532 18.2962 56.1558 18.1005 56.4876 17.7092C56.6955 17.4662 56.8391 17.1741 56.905 16.8601C56.962 16.4927 56.9855 16.1208 56.9753 15.7491V15.6132H56.9754ZM54.8487 16.831C54.8129 16.9017 54.759 16.9614 54.6926 17.004C54.6263 17.0467 54.5499 17.0707 54.4712 17.0735H54.2692V14.2888H54.4709C54.5496 14.2917 54.626 14.3157 54.6923 14.3583C54.7587 14.4009 54.8126 14.4607 54.8484 14.5313C54.9587 14.7275 55.0116 14.9513 55.0009 15.1766V16.1906C55.0113 16.4143 54.9585 16.6364 54.8487 16.831ZM52.1263 17.0735C52.0484 17.0701 51.9728 17.0459 51.9073 17.0033C51.8418 16.9606 51.7887 16.9012 51.7535 16.831C51.6435 16.6364 51.5907 16.4143 51.6011 16.1906V15.1766C51.5903 14.9513 51.6432 14.7275 51.7535 14.5313C51.7887 14.4611 51.8418 14.4017 51.9073 14.3591C51.9728 14.3165 52.0484 14.2922 52.1263 14.2888H52.2904V17.0732H52.1263V17.0735ZM62.0363 14.997C62.0363 14.1885 62.0176 13.6225 61.9801 13.299C61.9419 12.9742 61.8207 12.665 61.6283 12.4018C61.4304 12.1261 61.16 11.9118 60.8476 11.7831C60.5 11.6411 60.1276 11.571 59.7526 11.577C59.3663 11.5686 58.9827 11.643 58.627 11.7953C58.3194 11.929 58.0541 12.1455 57.8603 12.4211C57.6732 12.687 57.5569 12.9969 57.5225 13.3211C57.4865 13.6495 57.4686 14.2082 57.4687 14.9973V16.3412C57.4687 17.1499 57.4874 17.7159 57.5249 18.0393C57.563 18.3641 57.6842 18.6733 57.8767 18.9365C58.0743 19.2123 58.3445 19.4267 58.6567 19.5555C59.0044 19.6976 59.3768 19.7678 59.7518 19.7617C60.1381 19.7701 60.5217 19.6957 60.8774 19.5433C61.185 19.4095 61.4502 19.193 61.6442 18.9175C61.8311 18.6515 61.9474 18.3417 61.9818 18.0175C62.0178 17.6893 62.0357 17.1306 62.0357 16.3412V14.997H62.0363ZM60.0619 17.3696C60.0619 17.8322 60.0431 18.1249 60.0056 18.2478C59.9914 18.3044 59.9576 18.3541 59.9104 18.3879C59.8631 18.4217 59.8054 18.4374 59.7477 18.4321C59.694 18.4386 59.6397 18.4263 59.594 18.3971C59.5483 18.3679 59.5139 18.3237 59.4968 18.272C59.4608 18.1657 59.4428 17.8843 59.4428 17.4278V13.7599C59.4428 13.3556 59.4702 13.1122 59.5249 13.0297C59.5503 12.9899 59.5855 12.9576 59.6271 12.9359C59.6688 12.9142 59.7153 12.9039 59.7621 12.906C59.8135 12.9009 59.865 12.9132 59.9088 12.9408C59.9525 12.9685 59.9859 13.01 60.0037 13.0588C60.0428 13.1607 60.0623 13.3944 60.0623 13.7599V17.3695L60.0619 17.3696ZM67.3823 14.4159C67.3823 13.6826 67.323 13.1424 67.2044 12.7952C67.0859 12.4481 66.8373 12.1581 66.4588 11.9255C66.0804 11.6929 65.6004 11.5766 65.019 11.5766C64.6283 11.5689 64.2405 11.6458 63.8817 11.8021C63.5736 11.9349 63.3065 12.1485 63.1079 12.4207C62.9306 12.6609 62.8154 12.9418 62.7726 13.2382C62.7281 13.6611 62.7093 14.0864 62.7163 14.5117V16.8065C62.7163 17.5764 62.7772 18.153 62.8992 18.5362C63.0232 18.9221 63.2904 19.2446 63.6448 19.4361C64.0203 19.6528 64.4971 19.7612 65.0752 19.7612C65.6318 19.7612 66.1 19.6333 66.4798 19.3773C66.8597 19.1214 67.1051 18.8234 67.2162 18.4833C67.3271 18.1432 67.3825 17.5666 67.3826 16.7536V16.4475H65.4079V17.4344C65.4079 17.8657 65.3853 18.1397 65.34 18.2564C65.3176 18.3135 65.2773 18.3616 65.2251 18.3933C65.173 18.4249 65.112 18.4383 65.0515 18.4314C64.99 18.4393 64.9277 18.4265 64.8742 18.3949C64.8208 18.3633 64.7792 18.3147 64.756 18.2567C64.7123 18.1403 64.6904 17.8911 64.6904 17.5091V13.8605C64.6904 13.4627 64.7123 13.2039 64.756 13.0842C64.7998 12.9645 64.903 12.9047 65.0655 12.9048C65.2093 12.9048 65.3023 12.954 65.3446 13.0524C65.3869 13.1509 65.408 13.3986 65.4079 13.7956V15.1608H67.3823V14.4147V14.4159ZM72.4052 13.6337C72.4052 12.9966 72.2152 12.513 71.8353 12.1831C71.4554 11.8531 70.895 11.6881 70.154 11.6882C69.3503 11.6882 68.786 11.824 68.461 12.0957C68.136 12.3674 67.9734 12.8704 67.9732 13.6046V14.2693H69.868V13.367C69.868 13.0565 69.9836 12.9012 70.215 12.9011C70.3494 12.9011 70.4322 12.9505 70.4635 13.0491C70.5024 13.2217 70.5182 13.3987 70.5105 13.5755V14.9146H69.418V16.0596H70.5107V17.3599C70.521 17.6596 70.5069 17.9597 70.4685 18.257C70.4403 18.3801 70.3481 18.4415 70.1918 18.4415C69.9761 18.4415 69.8682 18.283 69.8682 17.966V16.7627H67.9732V17.3789C67.9732 18.2102 68.1468 18.7972 68.4938 19.1401C68.8409 19.4829 69.4115 19.6546 70.2056 19.6552C70.9529 19.6552 71.5063 19.4789 71.8658 19.1263C72.2253 18.7738 72.4051 18.219 72.4052 17.462V13.634V13.6337ZM78.0001 11.7368H73.4651V17.5199C73.4651 17.8788 73.4198 18.0891 73.329 18.1507C73.2383 18.2123 73.0726 18.243 72.832 18.2428V19.5964H73.1413C73.7911 19.5964 74.2644 19.5641 74.5612 19.4994C74.7 19.4731 74.8313 19.4165 74.9461 19.3335C75.0608 19.2505 75.1562 19.1432 75.2253 19.0191C75.3712 18.7637 75.4442 18.3432 75.4442 17.7576V13.3086H76.021V19.5964H78.0001V11.7368Z" fill="#E4E7E8"/>
<path fill-rule="evenodd" clip-rule="evenodd" d="M18.5996 14.5711H15.9401C19.6735 11.6432 23.8815 9.25502 28.0241 7.72431C24.5507 9.50143 21.3714 11.8111 18.5996 14.5711ZM16.0001 17.462C15.0333 18.6616 14.1607 19.9355 13.3901 21.2719C8.1535 30.422 11.0739 37.8878 19.913 37.9471C23.6204 37.9719 27.7801 36.6893 31.747 34.517C25.7951 38.4441 19.1029 40.9505 13.5141 40.9505C3.61887 40.9505 0.930647 33.0951 7.50981 23.4041C8.99474 21.2484 10.7009 19.2567 12.5999 17.462H16.0001Z" fill="#E4E7E8"/>
<path fill-rule="evenodd" clip-rule="evenodd" d="M24.3442 17.698C19.8841 25.5568 22.0466 31.7729 29.1881 31.453C32.8169 31.2904 36.952 29.4792 40.6816 26.7344C36.0585 31.5112 29.8079 34.847 24.4558 34.945C16.8574 35.084 13.996 28.6455 18.0485 20.596C21.5718 13.5967 29.1635 7.68883 36.0514 6.21155C31.4678 8.7843 27.0383 12.9508 24.3442 17.698Z" fill="#E4E7E8"/>
<path fill-rule="evenodd" clip-rule="evenodd" d="M36.6468 2.69695C24.8859 2.69695 9.56038 12.3584 2.41648 24.2763C2.2891 24.4887 2.16618 24.7003 2.04582 24.9112C2.23686 24.4901 2.43835 24.0671 2.65028 23.6422C9.15306 10.6158 23.4485 0.0648906 35.1417 0.000292798C41.4016 -0.0341992 45.6757 2.98096 47.3688 7.85371C45.5772 4.63887 41.9181 2.69695 36.6468 2.69695ZM10.7764 45.8555C22.5374 45.8555 37.8629 36.1942 45.0068 24.2763C45.647 23.2139 46.224 22.1139 46.7347 20.9823C46.2895 22.2729 45.7702 23.5362 45.1796 24.766C38.4661 38.812 22.9781 49.6761 11.2023 48.9672C5.25511 48.6091 1.42663 45.4125 0 40.6034C1.7716 43.8756 5.45254 45.8555 10.7764 45.8555Z" fill="#DD0000"/>
<path d="M54.0236 24.1794H54.8542L53.9415 29.8983H52.8005L52.1616 25.6046L51.5318 29.8983H50.3908L49.478 24.1794H50.3269L50.9658 29.1492L51.7052 24.1794H52.6179L53.3573 29.1492L54.0236 24.1794Z" fill="#E4E7E8"/>
<path d="M56.1812 25.4401H57.0757C57.6477 25.4401 57.9337 25.7112 57.9337 26.2532V27.925H56.1355V28.9847C56.1355 29.0883 56.1538 29.1583 56.1903 29.1949C56.2268 29.2314 56.2998 29.2497 56.4093 29.2497H56.8292C56.9387 29.2497 57.0118 29.2314 57.0483 29.1949C57.0848 29.1583 57.103 29.0852 57.103 28.9756V28.6102H57.9063V29.0944C57.9063 29.6303 57.6233 29.8983 57.0574 29.8983H56.1812C55.6152 29.8983 55.3323 29.6303 55.3323 29.0944V26.2532C55.3323 25.7112 55.6152 25.4401 56.1812 25.4401ZM56.1355 27.3221H57.1213V26.3537C57.1213 26.2502 57.103 26.1801 57.0665 26.1436C57.0361 26.107 56.9661 26.0888 56.8566 26.0888H56.4093C56.2998 26.0888 56.2268 26.107 56.1903 26.1436C56.1538 26.1801 56.1355 26.2502 56.1355 26.3537V27.3221Z" fill="#E4E7E8"/>
<path d="M59.4612 29.8983H58.6397V23.7866H59.4612V29.8983Z" fill="#E4E7E8"/>
<path d="M61.0835 29.8983H60.262V23.7866H61.0835V29.8983Z" fill="#E4E7E8"/>
<path d="M64.8648 23.7866H65.6863V29.8983H64.8648V29.542C64.7857 29.7795 64.597 29.8983 64.2989 29.8983H63.9703C63.4226 29.8983 63.1488 29.6303 63.1488 29.0944V26.2441C63.1488 25.702 63.4226 25.431 63.9703 25.431H64.2989C64.597 25.431 64.7857 25.5498 64.8648 25.7873V23.7866ZM64.2441 29.2314H64.5636C64.6731 29.2314 64.7492 29.207 64.7917 29.1583C64.8404 29.1096 64.8648 29.0274 64.8648 28.9117V26.4176C64.8648 26.3019 64.8404 26.2197 64.7917 26.171C64.7492 26.1223 64.6731 26.0979 64.5636 26.0979H64.2441C64.1346 26.0979 64.0615 26.1162 64.025 26.1527C63.9885 26.1893 63.9703 26.2593 63.9703 26.3628V28.9665C63.9703 29.0761 63.9885 29.1492 64.025 29.1857C64.0615 29.2162 64.1346 29.2314 64.2441 29.2314Z" fill="#E4E7E8"/>
<path d="M67.2868 25.4401H68.2635C68.8294 25.4401 69.1123 25.7112 69.1123 26.2532V29.0944C69.1123 29.6303 68.8294 29.8983 68.2635 29.8983H67.2868C66.727 29.8983 66.4471 29.6303 66.4471 29.0944V26.2532C66.4471 25.7112 66.727 25.4401 67.2868 25.4401ZM68.3 28.9756V26.3628C68.3 26.2532 68.2817 26.1801 68.2452 26.1436C68.2087 26.107 68.1357 26.0888 68.0261 26.0888H67.5241C67.4146 26.0888 67.3416 26.107 67.3051 26.1436C67.2746 26.1801 67.2594 26.2532 67.2594 26.3628V28.9756C67.2594 29.0852 67.2746 29.1583 67.3051 29.1949C67.3416 29.2314 67.4146 29.2497 67.5241 29.2497H68.0261C68.1357 29.2497 68.2087 29.2314 68.2452 29.1949C68.2817 29.1583 68.3 29.0852 68.3 28.9756Z" fill="#E4E7E8"/>
<path d="M71.2584 25.4401H71.5779C72.1316 25.4401 72.4085 25.7112 72.4085 26.2532V29.8983H71.587V26.372C71.587 26.2623 71.5687 26.1923 71.5322 26.1618C71.4957 26.1253 71.4227 26.107 71.3132 26.107H70.9937C70.8842 26.107 70.8051 26.1314 70.7564 26.1801C70.7138 26.2288 70.6925 26.3111 70.6925 26.4268V29.8983H69.871V25.4401H70.6925V25.7964C70.7716 25.5589 70.9602 25.4401 71.2584 25.4401Z" fill="#E4E7E8"/>
<path d="M74.0354 25.4401H74.9299C75.5019 25.4401 75.7879 25.7112 75.7879 26.2532V27.925H73.9897V28.9847C73.9897 29.0883 74.008 29.1583 74.0445 29.1949C74.081 29.2314 74.154 29.2497 74.2635 29.2497H74.6834C74.793 29.2497 74.866 29.2314 74.9025 29.1949C74.939 29.1583 74.9573 29.0852 74.9573 28.9756V28.6102H75.7605V29.0944C75.7605 29.6303 75.4775 29.8983 74.9116 29.8983H74.0354C73.4694 29.8983 73.1865 29.6303 73.1865 29.0944V26.2532C73.1865 25.7112 73.4694 25.4401 74.0354 25.4401ZM73.9897 27.3221H74.9755V26.3537C74.9755 26.2502 74.9572 26.1801 74.9207 26.1436C74.8903 26.107 74.8203 26.0888 74.7108 26.0888H74.2635C74.154 26.0888 74.081 26.107 74.0445 26.1436C74.008 26.1801 73.9897 26.2502 73.9897 26.3537V27.3221Z" fill="#E4E7E8"/>
<path d="M76.5761 29.8983V28.7746H77.4979V29.8983H76.5761ZM76.5487 24.1794H77.5436L77.3884 28.0346H76.7038L76.5487 24.1794Z" fill="#E4E7E8"/>
</g>
<defs>
<clipPath id="clip0_6914_4260">
<rect width="78" height="49" fill="white"/>
</clipPath>
</defs>
</svg>
