<svg width="1440" height="1143" viewBox="0 0 1440 1143" fill="none" xmlns="http://www.w3.org/2000/svg">
<path d="M-7.93703 1100.74C4.43455 1103.12 14.6575 1112.88 16.9982 1126.03C17.8534 1130.83 17.5657 1135.57 16.3335 1139.97L-0.420149 1142.96L-7.93703 1100.74ZM29.2287 1137.68C26.5507 1133.97 24.6438 1129.62 23.7886 1124.82C20.7549 1107.78 32.1089 1091.5 49.1549 1088.47C66.1932 1085.44 82.4722 1096.79 85.5007 1113.83C86.3585 1118.63 86.0707 1123.38 84.8359 1127.78L29.2287 1137.68ZM97.7337 1125.48C95.0531 1121.78 93.1463 1117.42 92.2911 1112.62C89.2574 1095.58 100.616 1079.31 117.655 1076.27C134.696 1073.24 150.975 1084.59 154.008 1101.63C154.863 1106.44 154.576 1111.18 153.338 1115.58L97.7337 1125.48ZM166.236 1113.28C163.558 1109.58 161.654 1105.23 160.799 1100.42C157.765 1083.39 169.116 1067.11 186.16 1064.08C203.201 1061.04 219.477 1072.4 222.511 1089.44C223.366 1094.24 223.078 1098.98 221.846 1103.38L166.236 1113.28ZM234.741 1101.09C232.061 1097.38 230.154 1093.03 229.299 1088.23C226.265 1071.19 237.621 1054.91 254.667 1051.88C271.706 1048.84 287.985 1060.2 291.013 1077.24C291.871 1082.04 291.583 1086.78 290.348 1091.18L234.741 1101.09ZM303.246 1088.89C300.566 1085.18 298.659 1080.83 297.804 1076.03C294.77 1058.99 306.129 1042.71 323.17 1039.68C340.208 1036.65 356.487 1048 359.521 1065.04C360.376 1069.84 360.088 1074.59 358.851 1078.99L303.246 1088.89ZM440.254 1064.49C437.573 1060.79 435.666 1056.44 434.811 1051.64C431.778 1034.6 443.134 1018.32 460.175 1015.29C477.218 1012.25 493.492 1023.61 496.526 1040.65C497.381 1045.45 497.093 1050.19 495.858 1054.59L440.254 1064.49ZM508.756 1052.3C506.076 1048.59 504.169 1044.24 503.314 1039.44C500.28 1022.4 511.636 1006.12 528.682 1003.09C545.721 1000.06 562 1011.41 565.033 1028.45C565.889 1033.25 565.601 1038 564.366 1042.4L508.756 1052.3ZM577.261 1040.1C574.583 1036.4 572.676 1032.04 571.821 1027.24C568.788 1010.2 580.144 993.927 597.185 990.892C614.226 987.858 630.505 999.214 633.533 1016.25C634.391 1021.06 634.103 1025.8 632.871 1030.2L577.261 1040.1ZM714.271 1015.71C711.591 1012 709.684 1007.65 708.826 1002.85C705.798 985.808 717.152 969.532 734.19 966.499C751.236 963.464 767.512 974.82 770.546 991.858C771.401 996.661 771.113 1001.4 769.876 1005.8L714.271 1015.71ZM782.771 1003.51C780.093 999.805 778.186 995.453 777.331 990.65C774.297 973.612 785.651 957.336 802.695 954.301C819.738 951.267 836.012 962.624 839.046 979.662C839.901 984.465 839.616 989.207 838.381 993.608L782.771 1003.51ZM919.779 979.115C917.098 975.411 915.194 971.059 914.339 966.256C911.305 949.218 922.662 932.941 939.702 929.907C956.748 926.872 973.02 938.23 976.053 955.268C976.909 960.071 976.621 964.813 975.386 969.214L919.779 979.115ZM1056.79 954.72C1054.11 951.017 1052.2 946.665 1051.35 941.862C1048.31 924.824 1059.67 908.547 1076.71 905.513C1093.75 902.479 1110.03 913.835 1113.06 930.873C1113.92 935.676 1113.63 940.419 1112.4 944.819L1056.79 954.72ZM1193.8 930.326C1191.12 926.622 1189.21 922.271 1188.35 917.468C1185.32 900.43 1196.68 884.153 1213.72 881.119C1230.76 878.084 1247.04 889.441 1250.07 906.479C1250.93 911.282 1250.64 916.024 1249.4 920.425L1193.8 930.326ZM1262.3 918.129C1259.62 914.425 1257.71 910.074 1256.86 905.271C1253.83 888.232 1265.18 871.956 1282.22 868.922C1299.27 865.887 1315.54 877.244 1318.57 894.282C1319.43 899.085 1319.14 903.828 1317.91 908.228L1262.3 918.129ZM1330.8 905.932C1328.13 902.228 1326.22 897.876 1325.36 893.073C1322.33 876.035 1333.69 859.759 1350.73 856.724C1367.77 853.69 1384.04 865.047 1387.08 882.085C1387.93 886.888 1387.65 891.63 1386.41 896.031L1330.8 905.932ZM1399.31 893.735C1396.63 890.031 1394.72 885.679 1393.87 880.876C1390.83 863.838 1402.19 847.562 1419.23 844.528C1436.28 841.493 1452.55 852.849 1455.58 869.888C1456.44 874.691 1456.15 879.433 1454.92 883.834L1399.31 893.735ZM1552.73 866.418L1536.32 869.341C1533.64 865.636 1531.73 861.285 1530.88 856.482C1528.56 843.465 1534.64 830.892 1545.24 824.332L1552.73 866.418ZM-20.0247 1032.85C-7.65309 1035.23 2.57033 1044.99 4.91146 1058.14C7.25214 1071.29 1.02985 1083.98 -9.76165 1090.49L-20.0247 1032.85ZM80.2044 1044.74C77.1698 1027.69 88.5288 1011.42 105.567 1008.38C122.608 1005.35 138.887 1016.71 141.921 1033.75C144.956 1050.79 133.597 1067.07 116.556 1070.1C99.5175 1073.13 83.2385 1061.78 80.2044 1044.74ZM148.712 1032.54C145.677 1015.5 157.029 999.221 174.072 996.186C191.113 993.152 207.389 1004.51 210.424 1021.55C213.458 1038.59 202.102 1054.87 185.061 1057.9C168.017 1060.94 151.746 1049.58 148.712 1032.54ZM217.212 1020.34C214.177 1003.3 225.534 987.023 242.58 983.988C259.618 980.955 275.897 992.311 278.926 1009.36C281.966 1026.4 270.607 1042.67 253.568 1045.71C236.522 1048.74 220.246 1037.38 217.212 1020.34ZM285.717 1008.15C282.682 991.103 294.041 974.826 311.082 971.792C328.12 968.758 344.399 980.114 347.434 997.157C350.468 1014.2 339.109 1030.48 322.071 1033.51C305.03 1036.54 288.751 1025.19 285.717 1008.15ZM354.225 995.948C351.19 978.905 362.544 962.629 379.579 959.596C396.625 956.561 412.899 967.917 415.934 984.961C418.968 1002 407.614 1018.28 390.568 1021.31C373.533 1024.35 357.259 1012.99 354.225 995.948ZM422.724 983.752C419.69 966.708 431.046 950.432 448.087 947.398C465.13 944.363 481.404 955.72 484.439 972.764C487.473 989.805 476.119 1006.08 459.076 1009.12C442.035 1012.15 425.759 1000.79 422.724 983.752ZM491.227 971.555C488.192 954.512 499.549 938.235 516.595 935.2C533.633 932.166 549.912 943.522 552.947 960.566C555.981 977.607 544.627 993.883 527.583 996.917C510.537 999.952 494.261 988.596 491.227 971.555ZM559.734 959.357C556.7 942.314 568.056 926.037 585.097 923.003C602.138 919.969 618.417 931.325 621.447 948.37C624.486 965.409 613.127 981.686 596.086 984.72C579.045 987.755 562.769 976.398 559.734 959.357ZM628.237 947.16C625.202 930.117 636.561 913.84 653.6 910.806C670.641 907.772 686.917 919.129 689.952 936.172C692.986 953.213 681.629 969.49 664.588 972.524C647.55 975.557 631.271 964.201 628.237 947.16ZM696.739 934.964C693.71 917.919 705.064 901.643 722.102 898.61C739.148 895.575 755.425 906.931 758.459 923.974C761.493 941.015 750.137 957.292 733.091 960.327C716.053 963.36 699.779 952.004 696.739 934.964ZM765.244 922.766C762.21 905.723 773.564 889.447 790.607 886.412C807.651 883.378 823.925 894.735 826.959 911.778C829.998 928.818 818.639 945.095 801.596 948.129C784.552 951.164 768.279 939.807 765.244 922.766ZM833.75 910.569C830.715 893.526 842.069 877.25 859.112 874.215C876.153 871.181 892.43 882.537 895.464 899.581C898.498 916.622 887.142 932.898 870.101 935.932C853.058 938.967 836.784 927.61 833.75 910.569ZM902.252 898.372C899.217 881.329 910.574 865.052 927.615 862.018C944.661 858.983 960.932 870.34 963.967 887.384C967.001 904.425 955.649 920.7 938.606 923.735C921.563 926.769 905.286 915.413 902.252 898.372ZM970.757 886.175C967.722 869.131 979.076 852.855 996.12 849.821C1013.16 846.787 1029.44 858.143 1032.47 875.187C1035.51 892.227 1024.15 908.503 1007.11 911.538C990.068 914.572 973.791 903.216 970.757 886.175ZM1039.26 873.978C1036.23 856.935 1047.58 840.658 1064.62 837.624C1081.67 834.589 1097.94 845.946 1100.98 862.989C1104.01 880.03 1092.65 896.307 1075.61 899.341C1058.57 902.375 1042.29 891.019 1039.26 873.978ZM1107.76 861.781C1104.73 844.737 1116.09 828.461 1133.13 825.427C1150.17 822.392 1166.44 833.749 1169.48 850.792C1172.51 867.833 1161.16 884.109 1144.12 887.144C1127.08 890.178 1110.8 878.821 1107.76 861.781ZM1176.27 849.584C1173.23 832.54 1184.59 816.264 1201.63 813.229C1218.68 810.195 1234.95 821.552 1237.98 838.595C1241.02 855.636 1229.66 871.912 1212.62 874.947C1195.58 877.981 1179.3 866.625 1176.27 849.584ZM1244.77 837.387C1241.74 820.343 1253.09 804.067 1270.13 801.033C1287.18 797.998 1303.45 809.355 1306.49 826.398C1309.52 843.439 1298.17 859.715 1281.12 862.75C1264.08 865.784 1247.81 854.427 1244.77 837.387ZM1313.28 825.189C1310.24 808.146 1321.6 791.869 1338.64 788.835C1355.68 785.801 1371.96 797.158 1374.99 814.201C1378.03 831.242 1366.67 847.518 1349.63 850.552C1332.59 853.587 1316.31 842.23 1313.28 825.189ZM1381.78 812.992C1378.75 795.949 1390.1 779.673 1407.14 776.638C1424.19 773.603 1440.46 784.96 1443.5 802.004C1446.53 819.045 1435.18 835.321 1418.13 838.356C1401.09 841.389 1384.81 830.033 1381.78 812.992ZM1450.28 800.795C1447.25 783.752 1458.61 767.475 1475.65 764.441C1492.69 761.407 1508.96 772.763 1512 789.807C1515.03 806.848 1503.68 823.124 1486.64 826.158C1469.6 829.192 1453.32 817.836 1450.28 800.795ZM1543.36 813.818C1531.15 811.317 1521.11 801.615 1518.79 788.598C1516.47 775.578 1522.55 763.005 1533.15 756.443L1543.36 813.818ZM-93.9029 617.919C-81.5282 620.302 -71.3074 630.067 -68.9667 643.213C-66.6256 656.362 -72.851 669.052 -83.6398 675.56L-93.9029 617.919ZM-23.8321 678.544C-6.79382 675.51 9.48465 686.863 12.5141 703.908C15.5534 720.948 4.19444 737.225 -12.8439 740.258C-29.8899 743.293 -46.1639 731.936 -49.198 714.896C-52.2326 697.852 -40.8781 681.579 -23.8321 678.544ZM20.9306 533.03C37.9715 529.996 54.2504 541.352 57.2845 558.393C60.3191 575.436 48.9593 591.708 31.9184 594.742C14.8801 597.776 -1.39803 586.425 -4.43261 569.381C-7.46673 552.341 3.89231 536.064 20.9306 533.03ZM72.2847 424.506C89.3255 421.472 105.602 432.828 108.636 449.872C111.671 466.912 100.314 483.189 83.2734 486.223C66.2299 489.258 49.9587 477.9 46.9246 460.859C43.89 443.816 55.2412 427.54 72.2847 424.506ZM165.412 550.584C182.45 547.55 198.729 558.903 201.758 575.948C204.798 592.988 193.438 609.262 176.4 612.296C159.354 615.331 143.078 603.977 140.044 586.936C137.009 569.893 148.366 553.619 165.412 550.584ZM224.704 486.659C241.743 483.625 258.022 494.981 261.056 512.022C264.09 529.065 252.731 545.342 235.693 548.376C218.652 551.41 202.373 540.054 199.339 523.011C196.305 505.97 207.664 489.693 224.704 486.659ZM266.319 323.478C283.365 320.443 299.639 331.8 302.673 348.841C305.707 365.882 294.353 382.155 277.307 385.19C260.271 388.224 243.998 376.869 240.964 359.828C237.93 342.788 249.283 326.512 266.319 323.478ZM368.626 501.111C385.669 498.076 401.943 509.433 404.977 526.474C408.012 543.518 396.658 559.791 379.614 562.826C362.573 565.86 346.297 554.506 343.263 537.462C340.229 520.421 351.585 504.145 368.626 501.111ZM455.695 593.164C472.739 590.129 489.012 601.484 492.047 618.527C495.081 635.568 483.722 651.845 466.684 654.879C449.638 657.914 433.361 646.557 430.327 629.516C427.292 612.473 438.649 596.199 455.695 593.164ZM499.167 440.386C516.208 437.352 532.484 448.705 535.516 465.749C538.555 482.789 527.196 499.066 510.156 502.1C493.115 505.135 476.838 493.778 473.804 476.737C470.77 459.694 482.126 443.42 499.167 440.386ZM584.684 523.747C601.725 520.713 618.001 532.067 621.036 549.113C624.069 566.151 612.713 582.43 595.673 585.464C578.634 588.498 562.355 577.139 559.321 560.101C556.286 543.055 567.646 526.781 584.684 523.747ZM617.375 310.416C634.421 307.381 650.697 318.735 653.731 335.779C656.765 352.819 645.409 369.096 628.363 372.131C611.325 375.165 595.051 363.808 592.011 346.768C588.982 329.723 600.336 313.45 617.375 310.416ZM729.708 544.376C746.751 541.342 763.03 552.695 766.059 569.739C769.093 586.78 757.739 603.056 740.696 606.091C723.653 609.125 707.379 597.768 704.345 580.728C701.31 563.684 712.664 547.411 729.708 544.376ZM774.864 401.04C791.905 398.006 808.181 409.36 811.215 426.401C814.249 443.445 802.892 459.718 785.852 462.752C768.808 465.787 752.535 454.433 749.5 437.389C746.466 420.348 757.82 404.075 774.864 401.04ZM866.718 519.982C883.761 516.947 900.032 528.302 903.067 545.345C906.101 562.386 894.75 578.662 877.704 581.697C860.663 584.731 844.386 573.374 841.352 556.333C838.318 539.29 849.674 523.016 866.718 519.982ZM890.23 255.099C907.273 252.064 923.547 263.418 926.581 280.462C929.615 297.503 918.258 313.776 901.218 316.811C884.174 319.845 867.901 308.491 864.867 291.45C861.832 274.407 873.189 258.133 890.23 255.099ZM969.114 301.197C986.155 298.163 1002.43 309.52 1005.47 326.56C1008.5 343.604 997.143 359.878 980.103 362.912C963.062 365.946 946.783 354.593 943.749 337.549C940.715 320.508 952.073 304.231 969.114 301.197ZM1072.23 483.391C1089.27 480.356 1105.54 491.71 1108.58 508.754C1111.61 525.795 1100.26 542.071 1083.22 545.105C1066.18 548.139 1049.9 536.782 1046.86 519.742C1043.83 502.698 1055.19 486.425 1072.23 483.391ZM1126.11 389.074C1143.16 386.039 1159.43 397.393 1162.46 414.437C1165.5 431.478 1154.14 447.754 1137.1 450.788C1120.06 453.822 1103.78 442.466 1100.75 425.425C1097.71 408.382 1109.07 392.108 1126.11 389.074ZM1209.24 458.996C1226.28 455.962 1242.55 467.316 1245.59 484.36C1248.62 501.4 1237.27 517.676 1220.22 520.711C1203.18 523.745 1186.91 512.389 1183.87 495.348C1180.84 478.304 1192.19 462.031 1209.24 458.996ZM1260.47 349.818C1277.51 346.783 1293.79 358.137 1296.82 375.181C1299.86 392.222 1288.5 408.495 1271.46 411.53C1254.42 414.564 1238.14 403.21 1235.11 386.169C1232.08 369.125 1243.43 352.852 1260.47 349.818ZM1346.24 434.602C1363.29 431.567 1379.56 442.921 1382.6 459.965C1385.63 477.006 1374.28 493.282 1357.23 496.317C1340.19 499.351 1323.91 487.995 1320.88 470.954C1317.85 453.91 1329.2 437.636 1346.24 434.602ZM1346.41 38.596C1363.45 35.5619 1379.73 46.9183 1382.76 63.9592C1385.8 81.0026 1374.44 97.2764 1357.4 100.311C1340.36 103.345 1324.08 91.9909 1321.05 74.9474C1318.01 57.9066 1329.37 41.6301 1346.41 38.596ZM1482.46 471.779C1470.25 469.279 1460.21 459.576 1457.89 446.559C1455.57 433.54 1461.65 420.969 1472.25 414.407L1482.46 471.779ZM-68.8374 758.697C-56.4627 761.08 -46.2419 770.845 -43.9008 783.994C-41.5601 797.14 -47.785 809.833 -58.5748 816.335L-68.8374 758.697ZM-11.7449 746.43C5.29336 743.397 21.5723 754.753 24.6017 771.797C27.641 788.837 16.2816 805.111 -0.756689 808.145C-17.8027 811.18 -34.0762 799.826 -37.1108 782.782C-40.1449 765.741 -28.791 749.465 -11.7449 746.43ZM56.7549 734.234C73.7957 731.2 90.0747 742.556 93.1092 759.599C96.1434 776.64 84.784 792.914 67.7432 795.948C50.7048 798.982 34.4262 787.629 31.3917 770.585C28.3575 753.544 39.7166 737.268 56.7549 734.234ZM-7.43842 288.961C9.60506 285.926 25.8785 297.281 28.9135 314.327C31.9472 331.365 20.5911 347.644 3.5503 350.678C-13.4905 353.712 -29.7675 342.353 -32.8016 325.312C-35.8362 308.269 -24.4793 291.995 -7.43842 288.961ZM193.767 709.839C210.806 706.805 227.085 718.161 230.114 735.205C233.154 752.245 221.794 768.52 204.756 771.553C187.71 774.588 171.434 763.235 168.399 746.191C165.365 729.15 176.721 712.874 193.767 709.839ZM253.885 650.551C270.924 647.518 287.202 658.871 290.237 675.914C293.271 692.955 281.912 709.232 264.874 712.266C247.833 715.3 231.554 703.944 228.52 686.903C225.485 669.86 236.845 653.585 253.885 650.551ZM330.767 685.446C347.813 682.411 364.087 693.768 367.122 710.811C370.156 727.852 358.802 744.126 341.756 747.161C324.72 750.194 308.446 738.84 305.412 721.796C302.378 704.755 313.732 688.479 330.767 685.446ZM399.275 673.248C416.318 670.214 432.592 681.571 435.627 698.614C438.661 715.655 427.307 731.928 410.263 734.963C393.222 737.997 376.946 726.643 373.912 709.6C370.878 692.559 382.234 676.282 399.275 673.248ZM467.782 661.051C484.826 658.016 501.1 669.373 504.134 686.416C507.168 703.457 495.809 719.731 478.771 722.765C461.725 725.8 445.449 714.446 442.414 697.403C439.38 680.362 450.736 664.086 467.782 661.051ZM536.285 648.854C553.326 645.82 569.605 657.176 572.634 674.22C575.674 691.26 564.314 707.534 547.273 710.568C530.232 713.602 513.956 702.249 510.922 685.205C507.888 668.164 519.244 651.888 536.285 648.854ZM604.787 636.657C621.828 633.623 638.105 644.979 641.139 662.023C644.173 679.063 632.817 695.337 615.776 698.371C598.737 701.405 582.459 690.052 579.424 673.008C576.39 655.967 587.749 639.691 604.787 636.657ZM673.29 624.46C690.336 621.425 706.612 632.781 709.647 649.825C712.681 666.866 701.324 683.14 684.278 686.175C667.24 689.208 650.966 677.854 647.927 660.811C644.898 643.77 656.252 627.494 673.29 624.46ZM810.3 600.065C827.341 597.031 843.617 608.388 846.652 625.431C849.686 642.472 838.329 658.746 821.288 661.78C804.245 664.815 787.971 653.46 784.937 636.417C781.903 619.376 793.257 603.1 810.3 600.065ZM878.805 587.868C895.849 584.834 912.12 596.191 915.154 613.234C918.189 630.275 906.837 646.548 889.791 649.583C872.75 652.617 856.474 641.263 853.439 624.22C850.405 607.179 861.762 590.903 878.805 587.868ZM925.383 452.532C942.426 449.497 958.7 460.854 961.735 477.898C964.769 494.939 953.412 511.212 936.371 514.246C919.327 517.281 903.054 505.927 900.019 488.883C896.985 471.842 908.342 455.566 925.383 452.532ZM1015.81 563.474C1032.85 560.44 1049.13 571.796 1052.16 588.84C1055.2 605.881 1043.84 622.154 1026.8 625.189C1009.76 628.223 993.481 616.869 990.447 599.826C987.413 582.785 998.772 566.508 1015.81 563.474ZM1084.32 551.277C1101.36 548.243 1117.63 559.599 1120.67 576.643C1123.7 593.684 1112.35 609.957 1095.3 612.992C1078.26 616.026 1061.99 604.672 1058.95 587.629C1055.92 570.587 1067.27 554.311 1084.32 551.277ZM1152.82 539.08C1169.86 536.045 1186.14 547.402 1189.17 564.446C1192.21 581.486 1180.85 597.76 1163.81 600.794C1146.77 603.829 1130.49 592.475 1127.45 575.432C1124.42 558.391 1135.78 542.114 1152.82 539.08ZM1221.32 526.883C1238.37 523.848 1254.64 535.205 1257.67 552.249C1260.71 569.29 1249.35 585.563 1232.31 588.598C1215.27 591.632 1198.99 580.278 1195.96 563.234C1192.93 546.194 1204.28 529.917 1221.32 526.883ZM1289.83 514.686C1306.87 511.652 1323.14 523.008 1326.18 540.051C1329.21 557.092 1317.86 573.366 1300.82 576.4C1283.78 579.434 1267.5 568.081 1264.46 551.037C1261.43 533.996 1272.79 517.72 1289.83 514.686ZM1358.33 502.489C1375.38 499.454 1391.65 510.811 1394.68 527.854C1397.72 544.895 1386.36 561.168 1369.32 564.203C1352.28 567.238 1336 555.884 1332.97 538.84C1329.93 521.799 1341.29 505.522 1358.33 502.489ZM1384.54 252.762C1401.58 249.728 1417.86 261.082 1420.89 278.123C1423.93 295.164 1412.57 311.443 1395.53 314.477C1378.49 317.511 1362.21 306.152 1359.18 289.111C1356.15 272.07 1367.5 255.796 1384.54 252.762ZM1494.55 539.669C1482.34 537.168 1472.3 527.465 1469.98 514.446C1467.66 501.426 1473.74 488.856 1484.34 482.294L1494.55 539.669ZM-56.7502 826.583C-44.3755 828.967 -34.1552 838.729 -31.8141 851.878C-29.4734 865.024 -35.6983 877.717 -46.4872 884.225L-56.7502 826.583ZM68.8421 802.12C85.8829 799.086 102.161 810.44 105.196 827.483C108.23 844.524 96.8716 860.803 79.8308 863.838C62.7925 866.871 46.513 855.513 43.4788 838.472C40.4443 821.428 51.8038 805.154 68.8421 802.12ZM137.347 789.923C154.388 786.889 170.664 798.243 173.698 815.286C176.733 832.327 165.377 848.606 148.336 851.64C131.292 854.675 115.021 843.315 111.987 826.274C108.952 809.231 120.304 792.958 137.347 789.923ZM205.855 777.725C222.893 774.692 239.172 786.045 242.201 803.089C245.24 820.129 233.882 836.409 216.843 839.443C199.797 842.478 183.52 831.119 180.486 814.078C177.452 797.034 188.809 780.76 205.855 777.725ZM274.357 765.529C291.395 762.495 307.674 773.848 310.708 790.892C313.743 807.933 302.384 824.212 285.346 827.246C268.305 830.28 252.025 818.921 248.991 801.88C245.957 784.837 257.316 768.563 274.357 765.529ZM342.854 753.333C359.9 750.298 376.174 761.652 379.208 778.695C382.243 795.736 370.889 812.015 353.843 815.05C336.807 818.083 320.533 806.724 317.499 789.683C314.464 772.639 325.819 756.366 342.854 753.333ZM411.362 741.135C428.405 738.1 444.679 749.455 447.713 766.498C450.748 783.539 439.394 799.817 422.351 802.852C405.31 805.886 389.033 794.527 385.999 777.486C382.964 760.443 394.321 744.169 411.362 741.135ZM479.87 728.937C496.913 725.903 513.187 737.257 516.221 754.3C519.255 771.341 507.897 787.621 490.858 790.654C473.812 793.689 457.535 782.33 454.501 765.289C451.467 748.246 462.824 731.972 479.87 728.937ZM616.875 704.543C633.915 701.509 650.191 712.863 653.226 729.907C656.26 746.947 644.904 763.226 627.863 766.261C610.825 769.294 594.546 757.936 591.511 740.895C588.477 723.851 599.836 707.577 616.875 704.543ZM685.377 692.347C702.423 689.312 718.699 700.665 721.734 717.709C724.768 734.75 713.412 751.029 696.366 754.064C679.328 757.097 663.053 745.738 660.014 728.698C656.984 711.654 668.339 695.38 685.377 692.347ZM753.882 680.149C770.926 677.115 787.204 688.468 790.234 705.512C793.268 722.553 781.914 738.832 764.871 741.866C747.827 744.901 731.553 733.542 728.519 716.501C725.484 699.457 736.839 683.184 753.882 680.149ZM822.387 667.952C839.428 664.918 855.704 676.272 858.739 693.315C861.773 710.356 850.417 726.635 833.376 729.669C816.333 732.704 800.058 721.344 797.024 704.303C793.989 687.26 805.344 670.987 822.387 667.952ZM890.892 655.755C907.936 652.72 924.207 664.075 927.241 681.118C930.275 698.159 918.924 714.437 901.878 717.472C884.838 720.506 868.561 709.147 865.527 692.107C862.492 675.063 873.849 658.789 890.892 655.755ZM959.395 643.558C976.438 640.523 992.712 651.878 995.746 668.921C998.78 685.962 987.424 702.241 970.383 705.275C953.34 708.31 937.066 696.95 934.032 679.909C930.997 662.866 942.354 646.592 959.395 643.558ZM1027.9 631.361C1044.94 628.326 1061.22 639.68 1064.25 656.724C1067.29 673.765 1055.93 690.044 1038.89 693.078C1021.85 696.112 1005.57 684.753 1002.53 667.712C999.499 650.669 1010.86 634.395 1027.9 631.361ZM1096.4 619.164C1113.45 616.129 1129.72 627.483 1132.75 644.527C1135.79 661.568 1124.43 677.846 1107.39 680.881C1090.35 683.915 1074.08 672.556 1071.04 655.515C1068.01 638.471 1079.36 622.198 1096.4 619.164ZM1164.91 606.966C1181.95 603.932 1198.22 615.286 1201.26 632.33C1204.29 649.37 1192.94 665.649 1175.9 668.684C1158.86 671.718 1142.58 660.359 1139.54 643.318C1136.51 626.275 1147.87 610.001 1164.91 606.966ZM1233.41 594.77C1250.45 591.735 1266.73 603.089 1269.76 620.133C1272.8 637.174 1261.44 653.452 1244.4 656.487C1227.36 659.521 1211.08 648.162 1208.05 631.121C1205.01 614.078 1216.37 597.804 1233.41 594.77ZM1370.42 570.375C1387.46 567.34 1403.74 578.695 1406.77 595.738C1409.81 612.779 1398.45 629.058 1381.41 632.093C1364.37 635.127 1348.09 623.768 1345.05 606.727C1342.02 589.683 1353.38 573.409 1370.42 570.375ZM1438.92 558.178C1455.96 555.144 1472.24 566.498 1475.27 583.541C1478.31 600.582 1466.95 616.861 1449.91 619.895C1432.87 622.929 1416.59 611.57 1413.56 594.53C1410.52 577.486 1421.88 561.212 1438.92 558.178ZM1506.64 607.555C1494.43 605.052 1484.38 595.349 1482.06 582.332C1479.75 569.313 1485.82 556.742 1496.42 550.18L1506.64 607.555ZM-44.6626 894.472C-32.2883 896.853 -22.068 906.616 -19.7269 919.764C-17.3862 932.91 -23.6111 945.603 -34.4004 952.109L-44.6626 894.472ZM12.4299 882.206C29.4682 879.172 45.7462 890.523 48.7756 907.567C51.8149 924.607 40.456 940.884 23.4177 943.918C6.37167 946.953 -9.90234 935.596 -12.9365 918.555C-15.971 901.512 -4.61613 885.241 12.4299 882.206ZM80.9297 870.01C97.9705 866.975 114.249 878.326 117.283 895.37C120.317 912.411 108.958 928.687 91.9175 931.722C74.8792 934.755 58.6001 923.399 55.566 906.358C52.5314 889.315 63.8914 873.043 80.9297 870.01ZM149.435 857.812C166.476 854.778 182.751 866.129 185.786 883.173C188.82 900.214 177.463 916.49 160.423 919.524C143.379 922.559 127.108 911.202 124.074 894.161C121.039 877.117 132.391 860.847 149.435 857.812ZM217.942 845.615C234.981 842.581 251.259 853.932 254.288 870.976C257.327 888.016 245.968 904.293 228.93 907.327C211.884 910.362 195.608 899.005 192.574 881.964C189.539 864.921 200.896 848.65 217.942 845.615ZM286.445 833.418C303.483 830.384 319.761 841.735 322.796 858.778C325.83 875.819 314.471 892.096 297.433 895.13C280.392 898.164 264.113 886.808 261.079 869.767C258.044 852.724 269.404 836.452 286.445 833.418ZM423.45 809.024C440.493 805.989 456.766 817.341 459.801 834.385C462.835 851.425 451.481 867.701 434.438 870.736C417.397 873.77 401.12 862.414 398.086 845.373C395.052 828.329 406.409 812.058 423.45 809.024ZM491.957 796.826C509.001 793.792 525.274 805.143 528.308 822.187C531.342 839.228 519.983 855.505 502.945 858.538C485.899 861.573 469.623 850.217 466.589 833.176C463.554 816.133 474.911 799.861 491.957 796.826ZM560.46 784.629C577.501 781.595 593.779 792.946 596.808 809.99C599.847 827.03 588.488 843.307 571.448 846.341C554.407 849.376 538.13 838.019 535.096 820.978C532.062 803.935 543.419 787.664 560.46 784.629ZM697.465 760.236C714.511 757.201 730.786 768.552 733.821 785.595C736.855 802.636 725.499 818.913 708.453 821.948C691.414 824.981 675.14 813.625 672.101 796.585C669.072 779.54 680.426 763.269 697.465 760.236ZM765.97 748.038C783.013 745.004 799.291 756.355 802.321 773.399C805.355 790.44 794.001 806.716 776.958 809.75C759.914 812.785 743.64 801.428 740.606 784.387C737.572 767.344 748.926 751.073 765.97 748.038ZM902.98 723.644C920.023 720.609 936.294 731.961 939.328 749.005C942.362 766.046 931.011 782.321 913.965 785.356C896.924 788.39 880.648 777.034 877.614 759.993C874.579 742.95 885.936 726.678 902.98 723.644ZM1030.32 209.445C1047.37 206.411 1063.64 217.766 1066.67 234.808C1069.71 251.851 1058.35 268.125 1041.31 271.16C1024.27 274.194 1007.99 262.84 1004.96 245.796C1001.92 228.756 1013.28 212.479 1030.32 209.445ZM1039.99 699.25C1057.03 696.216 1073.3 707.567 1076.34 724.61C1079.37 741.651 1068.02 757.928 1050.98 760.962C1033.93 763.996 1017.66 752.64 1014.62 735.599C1011.59 718.556 1022.95 702.284 1039.99 699.25ZM1176.99 674.856C1194.04 671.821 1210.31 683.173 1213.35 700.216C1216.38 717.257 1205.03 733.533 1187.98 736.568C1170.94 739.602 1154.66 728.246 1151.63 711.205C1148.59 694.161 1159.95 677.89 1176.99 674.856ZM1245.5 662.659C1262.54 659.624 1278.81 670.976 1281.85 688.019C1284.88 705.06 1273.53 721.336 1256.49 724.371C1239.44 727.405 1223.17 716.048 1220.13 699.008C1217.1 681.964 1228.46 665.693 1245.5 662.659ZM1314 650.461C1331.04 647.427 1347.32 658.779 1350.35 675.822C1353.39 692.863 1342.03 709.139 1324.99 712.173C1307.95 715.208 1291.67 703.851 1288.64 686.81C1285.6 669.767 1296.96 653.496 1314 650.461ZM1382.5 638.265C1399.55 635.23 1415.82 646.581 1418.86 663.625C1421.89 680.666 1410.54 696.942 1393.49 699.977C1376.45 703.011 1360.18 691.654 1357.14 674.613C1354.11 657.57 1365.47 641.298 1382.5 638.265ZM1518.72 675.439C1506.51 672.938 1496.47 663.238 1494.15 650.219C1491.83 637.199 1497.91 624.629 1508.51 618.067L1518.72 675.439ZM-32.5758 962.356C-20.2012 964.74 -9.98038 974.505 -7.63971 987.651C-5.29857 1000.8 -11.5235 1013.49 -22.3128 1020L-32.5758 962.356ZM93.0164 937.894C110.057 934.859 126.336 946.215 129.37 963.256C132.405 980.3 121.046 996.577 104.005 999.611C86.9668 1002.64 70.6878 991.288 67.6532 974.245C64.6191 957.204 75.9781 940.927 93.0164 937.894ZM161.521 925.696C178.562 922.662 194.839 934.019 197.873 951.059C200.907 968.103 189.551 984.379 172.51 987.413C155.467 990.448 139.195 979.091 136.161 962.047C133.127 945.006 144.478 928.731 161.521 925.696ZM230.029 913.499C247.067 910.465 263.346 921.821 266.375 938.863C269.415 955.905 258.056 972.182 241.018 975.216C223.972 978.251 207.695 966.894 204.661 949.851C201.627 932.81 212.983 916.534 230.029 913.499ZM298.531 901.302C315.57 898.268 331.849 909.624 334.883 926.665C337.917 943.708 326.558 959.985 309.52 963.019C292.479 966.053 276.2 954.697 273.166 937.654C270.132 920.613 281.491 904.336 298.531 901.302ZM367.029 889.106C384.075 886.071 400.349 897.428 403.383 914.468C406.417 931.512 395.064 947.788 378.017 950.823C360.982 953.856 344.708 942.499 341.673 925.456C338.639 908.415 349.993 892.139 367.029 889.106ZM435.536 876.908C452.58 873.873 468.854 885.23 471.888 902.271C474.922 919.315 463.569 935.591 446.525 938.625C429.484 941.659 413.208 930.303 410.173 913.259C407.139 896.219 418.495 879.942 435.536 876.908ZM504.044 864.71C521.087 861.676 537.361 873.033 540.395 890.073C543.43 907.117 532.071 923.394 515.033 926.427C497.987 929.462 481.71 918.106 478.676 901.063C475.642 884.022 486.998 867.745 504.044 864.71ZM572.547 852.513C589.587 849.479 605.866 860.835 608.895 877.877C611.935 894.92 600.576 911.196 583.535 914.231C566.494 917.265 550.218 905.908 547.183 888.865C544.149 871.824 555.506 855.548 572.547 852.513ZM641.049 840.317C658.09 837.282 674.366 848.639 677.4 865.68C680.435 882.723 669.079 899 652.038 902.034C634.999 905.067 618.72 893.711 615.686 876.668C612.652 859.627 624.011 843.35 641.049 840.317ZM709.551 828.12C726.597 825.085 742.874 836.441 745.908 853.482C748.943 870.525 737.586 886.802 720.54 889.837C703.502 892.871 687.228 881.514 684.188 864.471C681.159 847.429 692.513 831.153 709.551 828.12ZM778.056 815.922C795.1 812.888 811.379 824.244 814.408 841.286C817.443 858.329 806.089 874.605 789.045 877.64C772.002 880.674 755.728 869.317 752.693 852.274C749.659 835.233 761.013 818.957 778.056 815.922ZM846.562 803.725C863.602 800.691 879.879 812.047 882.913 829.088C885.948 846.132 874.591 862.408 857.55 865.442C840.507 868.477 824.233 857.12 821.198 840.077C818.164 823.036 829.518 806.76 846.562 803.725ZM915.067 791.528C932.11 788.493 948.381 799.851 951.415 816.891C954.45 833.935 943.099 850.21 926.053 853.245C909.012 856.28 892.735 844.923 889.701 827.88C886.667 810.839 898.023 794.562 915.067 791.528ZM983.569 779.331C1000.61 776.296 1016.89 787.653 1019.92 804.694C1022.96 821.738 1011.6 838.014 994.558 841.048C977.514 844.083 961.24 832.726 958.206 815.682C955.172 798.642 966.528 782.365 983.569 779.331ZM1052.07 767.134C1069.12 764.1 1085.39 775.456 1088.43 792.497C1091.46 809.54 1080.1 825.817 1063.06 828.851C1046.02 831.885 1029.74 820.529 1026.71 803.486C1023.67 786.445 1035.03 770.168 1052.07 767.134ZM1120.58 754.937C1137.62 751.902 1153.89 763.259 1156.93 780.3C1159.96 797.343 1148.61 813.619 1131.57 816.654C1114.52 819.688 1098.25 808.331 1095.21 791.288C1092.18 774.247 1103.54 757.971 1120.58 754.937ZM1189.08 742.74C1206.13 739.705 1222.4 751.062 1225.43 768.103C1228.47 785.146 1217.11 801.422 1200.07 804.457C1183.03 807.491 1166.75 796.135 1163.72 779.091C1160.68 762.051 1172.04 745.774 1189.08 742.74ZM1257.58 730.543C1274.63 727.508 1290.9 738.865 1293.94 755.906C1296.97 772.949 1285.62 789.225 1268.57 792.26C1251.53 795.294 1235.26 783.938 1232.22 766.894C1229.19 749.853 1240.54 733.577 1257.58 730.543ZM1326.09 718.345C1343.13 715.311 1359.41 726.668 1362.44 743.709C1365.48 760.752 1354.12 777.028 1337.08 780.063C1320.04 783.097 1303.76 771.74 1300.73 754.697C1297.69 737.656 1309.05 721.379 1326.09 718.345ZM1394.59 706.149C1411.64 703.113 1427.91 714.47 1430.95 731.511C1433.98 748.555 1422.63 764.831 1405.58 767.866C1388.54 770.9 1372.26 759.543 1369.23 742.5C1366.19 725.459 1377.55 709.182 1394.59 706.149ZM1463.1 693.951C1480.14 690.917 1496.41 702.274 1499.45 719.314C1502.48 736.358 1491.13 752.634 1474.09 755.668C1457.04 758.703 1440.77 747.346 1437.73 730.303C1434.7 713.262 1446.06 696.985 1463.1 693.951ZM1530.81 743.328C1518.6 740.827 1508.56 731.125 1506.24 718.105C1503.92 705.089 1510 692.515 1520.6 685.953L1530.81 743.328ZM-197.361 33.4534C-194.517 37.2483 -192.495 41.7501 -191.608 46.7344C-190.72 51.7236 -191.064 56.6414 -192.423 61.1846L-197.361 33.4534ZM-159.268 189.02C-162.303 171.977 -150.948 155.704 -133.905 152.669C-116.864 149.635 -100.588 160.989 -97.5535 178.032C-94.5194 195.073 -105.876 211.347 -122.917 214.381C-139.961 217.416 -156.234 206.061 -159.268 189.02ZM-133.909 -65.4854C-136.943 -82.5262 -125.586 -98.8026 -108.546 -101.837C-91.5047 -104.871 -75.2257 -93.5149 -72.1915 -76.4741C-69.157 -59.4306 -80.5164 -43.1563 -97.5573 -40.1222C-114.598 -37.088 -130.874 -48.4419 -133.909 -65.4854ZM-38.8631 71.3951C-41.8973 54.3541 -30.5435 38.0782 -13.4974 35.0432C3.54609 32.0086 19.82 43.3654 22.8541 60.4064C25.8887 77.4497 14.5344 93.7232 -2.50913 96.7577C-19.5553 99.7928 -35.8286 88.4385 -38.8631 71.3951ZM3.0962 -89.8791C0.0620837 -106.92 11.421 -123.197 28.4645 -126.231C45.5053 -129.265 61.7817 -117.909 64.8158 -100.868C67.8504 -83.8247 56.4936 -67.5509 39.4527 -64.5167C22.4093 -61.4822 6.13078 -72.8356 3.0962 -89.8791ZM71.6037 -102.077C68.5696 -119.118 79.926 -135.394 96.9668 -138.428C114.008 -141.462 130.282 -130.105 133.316 -113.065C136.35 -96.0211 124.996 -79.7477 107.955 -76.7136C90.9143 -73.6795 74.6383 -85.0333 71.6037 -102.077ZM177.809 97.4675C174.775 80.4241 186.126 64.151 203.172 61.116C220.211 58.0823 236.489 69.4358 239.524 86.4792C242.558 103.52 231.199 119.797 214.161 122.831C197.115 125.866 180.843 114.508 177.809 97.4675ZM208.611 -126.471C205.577 -143.512 216.934 -159.788 233.974 -162.822C251.018 -165.857 267.294 -154.501 270.328 -137.46C273.363 -120.416 262.006 -104.142 244.963 -101.108C227.922 -98.0736 211.646 -109.427 208.611 -126.471ZM290.095 -65.7768C287.06 -82.8201 298.417 -99.094 315.458 -102.128C332.499 -105.162 348.775 -93.8084 351.809 -76.765C354.843 -59.7241 343.492 -43.4461 326.446 -40.411C309.406 -37.3769 293.129 -48.7358 290.095 -65.7768ZM345.621 -150.866C342.587 -167.906 353.941 -184.182 370.985 -187.217C388.025 -190.251 404.302 -178.895 407.331 -161.853C410.371 -144.81 399.014 -128.536 381.973 -125.502C364.929 -122.468 348.656 -133.822 345.621 -150.866ZM437.861 -29.7451C434.826 -46.7885 446.184 -63.0597 463.225 -66.0939C480.265 -69.128 496.541 -57.7768 499.575 -40.7334C502.61 -23.6924 491.253 -7.41602 474.212 -4.38191C457.171 -1.34778 440.895 -12.7042 437.861 -29.7451ZM523.517 54.3845C520.482 37.3411 531.837 21.0676 548.88 18.0331C565.921 14.9989 582.197 26.3528 585.231 43.3963C588.266 60.4371 576.909 76.7135 559.868 79.7476C542.825 82.7822 526.551 71.4254 523.517 54.3845ZM567.399 -96.0879C564.365 -113.129 575.722 -129.403 592.766 -132.437C609.807 -135.471 626.082 -124.117 629.114 -107.076C632.151 -90.0332 620.794 -73.7593 603.753 -70.7252C586.71 -67.6906 570.434 -79.0445 567.399 -96.0879ZM645.115 -56.557C642.08 -73.6005 653.437 -89.8744 670.478 -92.9085C687.516 -95.9422 703.795 -84.5888 706.829 -67.5453C709.863 -50.5045 698.504 -34.2301 681.466 -31.1964C664.425 -28.1623 648.149 -39.5162 645.115 -56.557ZM740.503 82.2301C737.468 65.1892 748.823 48.9157 765.861 45.8821C782.907 42.847 799.18 54.2014 802.215 71.2423C805.249 88.2857 793.895 104.559 776.849 107.594C759.81 110.628 743.537 99.2735 740.503 82.2301ZM775.206 -119.797C772.171 -136.841 783.528 -153.114 800.566 -156.148C817.612 -159.183 833.886 -147.829 836.92 -130.785C839.954 -113.745 828.601 -97.4685 811.555 -94.4335C794.516 -91.3998 778.24 -102.756 775.206 -119.797ZM825.144 -236.244C822.11 -253.285 833.469 -269.562 850.512 -272.597C867.553 -275.631 883.829 -264.274 886.864 -247.234C889.898 -230.19 878.544 -213.917 861.5 -210.882C844.457 -207.847 828.178 -219.201 825.144 -236.244ZM918.679 -107.86C915.645 -124.901 927.004 -141.178 944.048 -144.213C961.089 -147.247 977.365 -135.89 980.397 -118.849C983.434 -101.806 972.077 -85.5295 955.036 -82.4954C937.993 -79.4608 921.714 -90.8169 918.679 -107.86ZM970.173 -215.616C967.139 -232.657 978.495 -248.934 995.536 -251.968C1012.57 -255.001 1028.85 -243.645 1031.89 -226.605C1034.92 -209.561 1023.56 -193.287 1006.52 -190.253C989.483 -187.219 973.207 -198.573 970.173 -215.616ZM1074.48 -26.6787C1071.46 -43.7205 1082.81 -59.9964 1099.85 -63.03C1116.89 -66.0651 1133.17 -54.7088 1136.2 -37.6679C1139.24 -20.6244 1127.88 -4.35056 1110.84 -1.31552C1093.8 1.71814 1077.52 -9.63619 1074.48 -26.6787ZM1099.16 -285.033C1096.13 -302.074 1107.48 -318.35 1124.53 -321.385C1141.57 -324.419 1157.84 -313.063 1160.88 -296.022C1163.92 -278.979 1152.56 -262.705 1135.52 -259.67C1118.47 -256.635 1102.2 -267.99 1099.16 -285.033ZM1191.02 -166.09C1187.98 -183.133 1199.34 -199.407 1216.38 -202.441C1233.42 -205.475 1249.7 -194.121 1252.73 -177.078C1255.76 -160.037 1244.41 -143.763 1227.37 -140.729C1210.33 -137.695 1194.05 -149.049 1191.02 -166.09ZM1236.17 -309.427C1233.13 -326.468 1244.49 -342.744 1261.53 -345.779C1278.58 -348.814 1294.85 -337.457 1297.89 -320.416C1300.92 -303.372 1289.57 -287.099 1272.53 -284.065C1255.48 -281.03 1239.2 -292.384 1236.17 -309.427ZM1390.69 -44.7781C1389.19 -44.2654 1387.63 -43.8596 1386.02 -43.5726C1368.98 -40.5389 1352.7 -51.8953 1349.67 -68.9361C1346.63 -85.9796 1357.99 -102.256 1375.03 -105.29C1376.64 -105.576 1378.24 -105.734 1379.83 -105.771L1390.69 -44.7781ZM-227.042 -133.247C-224.198 -129.452 -222.177 -124.953 -221.289 -119.969C-220.401 -114.979 -220.745 -110.059 -222.104 -105.516L-227.042 -133.247ZM-214.498 -121.175C-217.533 -138.216 -206.179 -154.492 -189.135 -157.526C-172.094 -160.561 -155.818 -149.204 -152.784 -132.166C-149.749 -115.12 -161.106 -98.846 -178.147 -95.8119C-195.19 -92.7773 -211.464 -104.132 -214.498 -121.175ZM-145.996 -133.372C-149.03 -150.413 -137.674 -166.689 -120.633 -169.723C-103.592 -172.757 -87.3128 -161.402 -84.2792 -144.363C-81.2441 -127.317 -92.6036 -111.043 -109.644 -108.009C-126.685 -104.975 -142.961 -116.328 -145.996 -133.372ZM-77.4935 -145.569C-80.5276 -162.61 -69.1738 -178.886 -52.1277 -181.921C-35.0842 -184.955 -18.8103 -173.598 -15.7767 -156.56C-12.7416 -139.514 -24.096 -123.241 -41.1394 -120.206C-58.1856 -117.171 -74.4589 -128.525 -77.4935 -145.569ZM-8.99098 -157.766C-12.0251 -174.806 -0.666177 -191.083 16.3773 -194.118C33.4181 -197.152 49.6945 -185.796 52.7282 -168.757C55.7632 -151.711 44.4064 -135.437 27.3656 -132.403C10.3221 -129.369 -5.95639 -140.722 -8.99098 -157.766ZM59.5166 -169.963C56.4824 -187.004 67.8388 -203.281 84.8797 -206.315C101.921 -209.349 118.194 -197.992 121.228 -180.954C124.263 -163.908 112.909 -147.634 95.8679 -144.6C78.8271 -141.566 62.5511 -152.92 59.5166 -169.963ZM128.022 -182.161C124.987 -199.201 136.339 -215.477 153.385 -218.512C170.423 -221.546 186.702 -210.19 189.736 -193.151C192.771 -176.105 181.411 -159.831 164.373 -156.797C147.327 -153.762 131.056 -165.117 128.022 -182.161ZM196.524 -194.357C193.49 -211.398 204.846 -227.675 221.887 -230.709C238.931 -233.743 255.207 -222.387 258.241 -205.349C261.276 -188.303 249.919 -172.029 232.876 -168.994C215.835 -165.96 199.559 -177.314 196.524 -194.357ZM265.029 -206.555C261.995 -223.596 273.351 -239.872 290.392 -242.906C307.433 -245.94 323.71 -234.584 326.743 -217.546C329.778 -200.5 318.427 -184.227 301.381 -181.192C284.34 -178.157 268.064 -189.511 265.029 -206.555ZM333.534 -218.752C330.5 -235.793 341.854 -252.069 358.897 -255.103C375.938 -258.138 392.215 -246.781 395.243 -229.742C398.283 -212.697 386.927 -196.423 369.886 -193.389C352.842 -190.354 336.569 -201.709 333.534 -218.752ZM402.037 -230.949C399.003 -247.99 410.359 -264.266 427.4 -267.3C444.441 -270.334 460.717 -258.978 463.751 -241.94C466.786 -224.894 455.429 -208.62 438.388 -205.586C421.347 -202.552 405.071 -213.905 402.037 -230.949ZM495.478 209.117C492.443 192.076 503.799 175.797 520.84 172.763C537.879 169.729 554.158 181.087 557.192 198.128C560.227 215.172 548.873 231.448 531.829 234.482C514.789 237.516 498.512 226.16 495.478 209.117ZM539.044 -255.343C536.01 -272.384 547.366 -288.66 564.41 -291.695C581.451 -294.729 597.727 -283.373 600.758 -266.334C603.796 -249.288 592.439 -233.014 575.398 -229.98C558.355 -226.946 542.079 -238.3 539.044 -255.343ZM615.934 -220.45C612.9 -237.49 624.256 -253.769 641.296 -256.804C658.335 -259.837 674.614 -248.479 677.648 -231.438C680.683 -214.394 669.323 -198.12 652.285 -195.086C635.244 -192.052 618.968 -203.406 615.934 -220.45ZM676.054 -279.738C673.02 -296.779 684.374 -313.054 701.412 -316.088C718.458 -319.123 734.732 -307.766 737.766 -290.728C740.801 -273.682 729.447 -257.409 712.401 -254.374C695.362 -251.34 679.089 -262.694 676.054 -279.738ZM744.557 -291.935C741.523 -308.975 752.879 -325.252 769.917 -328.285C786.963 -331.32 803.237 -319.964 806.271 -302.925C809.306 -285.879 797.952 -269.606 780.906 -266.571C763.867 -263.537 747.591 -274.891 744.557 -291.935ZM813.057 -304.131C810.023 -321.172 821.382 -337.449 838.425 -340.483C855.466 -343.517 871.742 -332.161 874.776 -315.123C877.811 -298.077 866.457 -281.803 849.413 -278.769C832.37 -275.734 816.091 -287.087 813.057 -304.131ZM881.562 -316.328C878.528 -333.369 889.887 -349.646 906.93 -352.68C923.971 -355.715 940.247 -344.358 943.278 -327.319C946.316 -310.274 934.959 -294 917.918 -290.966C900.875 -287.931 884.596 -299.285 881.562 -316.328ZM950.069 -328.526C947.035 -345.567 958.392 -361.843 975.433 -364.877C992.471 -367.911 1008.75 -356.555 1011.78 -339.517C1014.82 -322.471 1003.46 -306.196 986.421 -303.163C969.38 -300.129 953.104 -311.482 950.069 -328.526ZM1018.57 -340.722C1015.54 -357.764 1026.89 -374.04 1043.93 -377.074C1060.98 -380.109 1077.25 -368.752 1080.29 -351.714C1083.32 -334.668 1071.97 -318.394 1054.92 -315.359C1037.88 -312.325 1021.61 -323.68 1018.57 -340.722ZM1155.58 -365.117C1152.55 -382.158 1163.9 -398.434 1180.94 -401.468C1197.99 -404.503 1214.26 -393.146 1217.29 -376.108C1220.33 -359.062 1208.97 -342.788 1191.93 -339.754C1174.89 -336.72 1158.62 -348.074 1155.58 -365.117ZM1224.08 -377.314C1221.05 -394.355 1232.4 -410.631 1249.45 -413.666C1266.49 -416.7 1282.76 -405.343 1285.8 -388.305C1288.83 -371.259 1277.48 -354.986 1260.44 -351.951C1243.39 -348.916 1227.12 -360.27 1224.08 -377.314ZM1355.53 -242.211C1354.03 -241.701 1352.48 -241.295 1350.86 -241.008C1333.82 -237.975 1317.55 -249.331 1314.51 -266.372C1311.48 -283.416 1322.83 -299.689 1339.87 -302.723C1341.48 -303.01 1343.09 -303.17 1344.67 -303.207L1355.53 -242.211ZM-239.129 -201.133C-236.285 -197.339 -234.264 -192.839 -233.376 -187.853C-232.488 -182.866 -232.832 -177.945 -234.191 -173.402L-239.129 -201.133ZM-226.586 -189.062C-229.62 -206.102 -218.266 -222.378 -201.222 -225.413C-184.182 -228.447 -167.905 -217.091 -164.871 -200.05C-161.836 -183.006 -173.193 -166.733 -190.234 -163.698C-207.278 -160.664 -223.551 -172.018 -226.586 -189.062ZM-158.083 -201.258C-161.117 -218.299 -149.761 -234.576 -132.72 -237.61C-115.679 -240.644 -99.4 -229.288 -96.3659 -212.247C-93.3313 -195.204 -104.691 -178.929 -121.732 -175.895C-138.772 -172.861 -155.049 -184.215 -158.083 -201.258ZM-89.5806 -213.455C-92.6148 -230.496 -81.261 -246.772 -64.2149 -249.807C-47.1714 -252.842 -30.8975 -241.485 -27.8634 -224.444C-24.8288 -207.4 -36.1831 -191.127 -53.2266 -188.093C-70.2727 -185.058 -86.546 -196.412 -89.5806 -213.455ZM-21.0781 -225.652C-24.1123 -242.693 -12.7534 -258.97 4.29012 -262.004C21.331 -265.039 37.6074 -253.682 40.6415 -236.641C43.6761 -219.598 32.3192 -203.324 15.2784 -200.29C-1.76509 -197.255 -18.0436 -208.609 -21.0781 -225.652ZM47.4294 -237.85C44.3953 -254.891 55.7517 -271.167 72.7925 -274.201C89.8333 -277.235 106.107 -265.879 109.141 -248.838C112.176 -231.794 100.822 -215.521 83.7808 -212.487C66.7399 -209.453 50.464 -220.806 47.4294 -237.85ZM184.437 -262.244C181.403 -279.285 192.759 -295.561 209.8 -298.595C226.844 -301.63 243.12 -290.274 246.154 -273.233C249.189 -256.189 237.832 -239.915 220.788 -236.881C203.748 -233.847 187.471 -245.2 184.437 -262.244ZM252.942 -274.441C249.908 -291.482 261.264 -307.759 278.305 -310.793C295.346 -313.827 311.622 -302.47 314.657 -285.43C317.691 -268.386 306.339 -252.113 289.293 -249.078C272.253 -246.044 255.976 -257.398 252.942 -274.441ZM389.95 -298.835C386.915 -315.876 398.272 -332.153 415.313 -335.187C432.353 -338.221 448.63 -326.865 451.664 -309.824C454.699 -292.78 443.342 -276.506 426.301 -273.472C409.26 -270.438 392.984 -281.792 389.95 -298.835ZM458.455 -311.033C455.42 -328.074 466.774 -344.35 483.818 -347.384C500.859 -350.418 517.135 -339.062 520.169 -322.021C523.204 -304.977 511.847 -288.704 494.806 -285.67C477.763 -282.635 461.489 -293.989 458.455 -311.033ZM526.957 -323.23C523.923 -340.27 535.279 -356.547 552.323 -359.581C569.364 -362.616 585.64 -351.259 588.672 -334.218C591.709 -317.175 580.352 -300.901 563.311 -297.867C546.268 -294.832 529.992 -306.186 526.957 -323.23ZM595.462 -335.427C592.428 -352.468 603.784 -368.744 620.825 -371.778C637.863 -374.812 654.143 -363.456 657.177 -346.415C660.211 -329.372 648.852 -313.097 631.813 -310.064C614.773 -307.03 598.497 -318.383 595.462 -335.427ZM663.967 -347.624C660.933 -364.665 672.287 -380.941 689.325 -383.975C706.371 -387.01 722.645 -375.653 725.679 -358.612C728.714 -341.568 717.359 -325.295 700.313 -322.26C683.275 -319.226 667.002 -330.581 663.967 -347.624ZM732.47 -359.821C729.435 -376.862 740.792 -393.138 757.83 -396.172C774.876 -399.207 791.15 -387.85 794.184 -370.809C797.219 -353.766 785.864 -337.492 768.818 -334.457C751.78 -331.424 735.504 -342.777 732.47 -359.821ZM800.969 -372.017C797.935 -389.058 809.294 -405.335 826.338 -408.37C843.379 -411.404 859.655 -400.047 862.689 -383.007C865.724 -365.963 854.369 -349.69 837.326 -346.655C820.283 -343.621 804.004 -354.974 800.969 -372.017ZM937.982 -396.412C934.948 -413.453 946.304 -429.73 963.345 -432.764C980.384 -435.798 996.663 -424.442 999.697 -407.401C1002.73 -390.357 991.372 -374.083 974.334 -371.049C957.293 -368.015 941.017 -379.369 937.982 -396.412ZM1006.48 -408.609C1003.45 -425.651 1014.81 -441.927 1031.85 -444.96C1048.89 -447.995 1065.17 -436.639 1068.2 -419.598C1071.24 -402.554 1059.88 -386.281 1042.83 -383.246C1025.8 -380.212 1009.52 -391.566 1006.48 -408.609ZM1074.99 -420.806C1071.95 -437.847 1083.31 -454.123 1100.35 -457.158C1117.4 -460.193 1133.67 -448.836 1136.7 -431.795C1139.74 -414.752 1128.38 -398.478 1111.34 -395.443C1094.3 -392.408 1078.02 -403.763 1074.99 -420.806ZM1143.49 -433.004C1140.46 -450.045 1151.81 -466.321 1168.86 -469.355C1185.9 -472.389 1202.17 -461.033 1205.21 -443.992C1208.24 -426.948 1196.89 -410.675 1179.84 -407.64C1162.8 -404.606 1146.53 -415.96 1143.49 -433.004ZM1211.99 -445.2C1208.96 -462.241 1220.32 -478.518 1237.36 -481.552C1254.4 -484.587 1270.68 -473.23 1273.71 -456.189C1276.75 -439.145 1265.39 -422.872 1248.35 -419.838C1231.31 -416.803 1215.03 -428.157 1211.99 -445.2ZM1321.52 -433.24C1320.02 -432.727 1318.46 -432.321 1316.85 -432.034C1299.81 -429.001 1283.54 -440.355 1280.5 -457.398C1277.47 -474.439 1288.82 -490.715 1305.86 -493.749C1307.47 -494.036 1309.08 -494.196 1310.66 -494.233L1321.52 -433.24ZM-251.216 -269.02C-248.372 -265.225 -246.351 -260.726 -245.463 -255.739C-244.575 -250.752 -244.919 -245.832 -246.278 -241.289L-251.216 -269.02ZM-238.673 -256.948C-241.707 -273.989 -230.353 -290.265 -213.31 -293.3C-196.269 -296.334 -179.992 -284.977 -176.958 -267.936C-173.924 -250.896 -185.28 -234.619 -202.321 -231.585C-219.365 -228.55 -235.639 -239.907 -238.673 -256.948ZM-170.17 -269.145C-173.204 -286.186 -161.848 -302.462 -144.807 -305.497C-127.766 -308.531 -111.487 -297.175 -108.453 -280.134C-105.419 -263.093 -116.778 -246.816 -133.819 -243.782C-150.86 -240.748 -167.136 -252.104 -170.17 -269.145ZM-101.668 -281.342C-104.702 -298.383 -93.3482 -314.659 -76.3021 -317.694C-59.2586 -320.728 -42.9847 -309.371 -39.9506 -292.331C-36.9165 -275.29 -48.2703 -259.014 -65.3138 -255.979C-82.3599 -252.944 -98.6337 -264.301 -101.668 -281.342ZM35.3422 -305.736C32.3081 -322.777 43.6645 -339.054 60.7053 -342.088C77.7461 -345.122 94.02 -333.765 97.0541 -316.724C100.088 -299.683 88.7344 -283.407 71.6936 -280.373C54.6527 -277.339 38.3763 -288.696 35.3422 -305.736ZM103.847 -317.934C100.813 -334.975 112.164 -351.25 129.21 -354.285C146.249 -357.319 162.528 -345.963 165.562 -328.922C168.596 -311.881 157.237 -295.604 140.199 -292.571C123.153 -289.536 106.881 -300.893 103.847 -317.934ZM172.35 -330.131C169.316 -347.171 180.672 -363.448 197.713 -366.482C214.756 -369.517 231.033 -358.16 234.067 -341.119C237.101 -324.079 225.745 -307.802 208.701 -304.767C191.66 -301.733 175.384 -313.09 172.35 -330.131ZM240.855 -342.328C237.821 -359.369 249.177 -375.645 266.218 -378.679C283.259 -381.714 299.535 -370.357 302.569 -353.316C305.603 -336.275 294.252 -320 277.206 -316.965C260.165 -313.931 243.889 -325.287 240.855 -342.328ZM309.36 -354.525C306.326 -371.566 317.68 -387.842 334.723 -390.877C351.764 -393.911 368.04 -382.554 371.069 -365.513C374.109 -348.473 362.752 -332.196 345.711 -329.162C328.668 -326.127 312.394 -337.484 309.36 -354.525ZM377.862 -366.722C374.828 -383.763 386.185 -400.039 403.225 -403.074C420.266 -406.108 436.543 -394.751 439.577 -377.71C442.611 -360.669 431.255 -344.393 414.214 -341.359C397.173 -338.325 380.896 -349.681 377.862 -366.722ZM446.367 -378.919C443.333 -395.96 454.687 -412.236 471.73 -415.271C488.771 -418.305 505.048 -406.948 508.082 -389.908C511.116 -372.867 499.76 -356.59 482.719 -353.556C465.675 -350.522 449.401 -361.879 446.367 -378.919ZM514.87 -391.116C511.836 -408.157 523.192 -424.434 540.235 -427.468C557.276 -430.502 573.553 -419.146 576.584 -402.104C579.621 -385.064 568.265 -368.788 551.224 -365.753C534.18 -362.719 517.904 -374.075 514.87 -391.116ZM583.375 -403.314C580.341 -420.354 591.697 -436.631 608.738 -439.665C625.776 -442.699 642.055 -431.343 645.089 -414.302C648.124 -397.261 636.765 -380.984 619.726 -377.95C602.685 -374.916 586.409 -386.273 583.375 -403.314ZM720.382 -427.708C717.348 -444.748 728.705 -461.025 745.743 -464.059C762.789 -467.094 779.063 -455.737 782.097 -438.696C785.131 -421.655 773.777 -405.379 756.731 -402.344C739.693 -399.31 723.416 -410.667 720.382 -427.708ZM788.882 -439.904C785.848 -456.945 797.207 -473.222 814.251 -476.256C831.291 -479.291 847.568 -467.934 850.602 -450.893C853.636 -433.852 842.282 -417.576 825.239 -414.542C808.195 -411.507 791.916 -422.863 788.882 -439.904ZM857.387 -452.101C854.353 -469.142 865.712 -485.419 882.756 -488.454C899.797 -491.488 916.073 -480.131 919.104 -463.09C922.141 -446.05 910.785 -429.773 893.744 -426.739C876.7 -423.704 860.421 -435.06 857.387 -452.101ZM994.395 -476.495C991.366 -493.537 1002.72 -509.813 1019.76 -512.847C1036.8 -515.882 1053.08 -504.525 1056.11 -487.485C1059.15 -470.444 1047.79 -454.167 1030.75 -451.132C1013.71 -448.099 997.434 -459.456 994.395 -476.495ZM1062.9 -488.693C1059.87 -505.734 1071.22 -522.01 1088.27 -525.045C1105.31 -528.079 1121.58 -516.722 1124.62 -499.681C1127.65 -482.641 1116.3 -466.365 1099.25 -463.33C1082.21 -460.295 1065.93 -471.652 1062.9 -488.693ZM1199.91 -513.087C1196.87 -530.128 1208.23 -546.404 1225.27 -549.439C1242.32 -552.473 1258.59 -541.116 1261.62 -524.076C1264.66 -507.035 1253.3 -490.759 1236.26 -487.725C1219.22 -484.69 1202.94 -496.046 1199.91 -513.087ZM-263.303 -336.907C-260.46 -333.112 -258.438 -328.612 -257.55 -323.626C-256.663 -318.639 -257.007 -313.719 -258.366 -309.175L-263.303 -336.907ZM-250.76 -324.835C-253.794 -341.876 -242.441 -358.154 -225.397 -361.189C-208.356 -364.223 -192.079 -352.864 -189.045 -335.823C-186.011 -318.78 -197.368 -302.506 -214.408 -299.472C-231.452 -296.437 -247.725 -307.791 -250.76 -324.835ZM-182.257 -337.032C-185.292 -354.072 -173.936 -370.351 -156.895 -373.386C-139.854 -376.42 -123.574 -365.061 -120.54 -348.02C-117.506 -330.977 -128.865 -314.703 -145.906 -311.668C-162.947 -308.634 -179.223 -319.988 -182.257 -337.032ZM-113.755 -349.228C-116.789 -366.269 -105.436 -382.548 -88.3897 -385.583C-71.3462 -388.617 -55.0719 -377.258 -52.0377 -360.217C-49.0032 -343.174 -60.3575 -326.9 -77.401 -323.866C-94.4471 -320.831 -110.72 -332.185 -113.755 -349.228ZM-45.2525 -361.425C-48.2866 -378.466 -36.9282 -394.746 -19.8847 -397.78C-2.84385 -400.814 13.433 -389.455 16.4671 -372.414C19.5017 -355.371 8.14486 -339.097 -8.89597 -336.063C-25.9395 -333.028 -42.2179 -344.382 -45.2525 -361.425ZM23.255 -373.623C20.2209 -390.664 31.5768 -406.943 48.6177 -409.977C65.6585 -413.011 81.9328 -401.652 84.967 -384.611C88.0015 -367.567 76.6472 -351.294 59.6064 -348.26C42.5656 -345.226 26.2896 -356.58 23.255 -373.623ZM91.7601 -385.82C88.7259 -402.861 100.077 -419.139 117.123 -422.174C134.161 -425.208 150.441 -413.849 153.475 -396.808C156.509 -379.765 145.15 -363.491 128.112 -360.457C111.066 -357.422 94.7946 -368.777 91.7601 -385.82ZM160.263 -398.017C157.228 -415.058 168.584 -431.337 185.625 -434.371C202.669 -437.406 218.946 -426.047 221.98 -409.006C225.014 -391.962 213.657 -375.689 196.614 -372.654C179.573 -369.62 163.297 -380.974 160.263 -398.017ZM228.768 -410.214C225.733 -427.255 237.089 -443.534 254.13 -446.568C271.171 -449.602 287.448 -438.244 290.482 -421.203C293.517 -404.159 282.165 -387.886 265.119 -384.851C248.078 -381.817 231.802 -393.171 228.768 -410.214ZM365.775 -434.609C362.741 -451.649 374.097 -467.928 391.138 -470.963C408.179 -473.997 424.456 -462.638 427.49 -445.597C430.524 -428.553 419.167 -412.28 402.127 -409.245C385.086 -406.211 368.81 -417.565 365.775 -434.609ZM434.28 -446.806C431.246 -463.847 442.599 -480.125 459.643 -483.16C476.684 -486.194 492.961 -474.835 495.995 -457.794C499.029 -440.751 487.672 -424.477 470.632 -421.443C453.588 -418.408 437.315 -429.762 434.28 -446.806ZM502.783 -459.003C499.749 -476.044 511.104 -492.323 528.148 -495.357C545.189 -498.391 561.466 -487.032 564.497 -469.991C567.534 -452.948 556.177 -436.674 539.137 -433.64C522.093 -430.605 505.817 -441.959 502.783 -459.003ZM571.288 -471.2C568.254 -488.241 579.61 -504.52 596.65 -507.554C613.689 -510.588 629.968 -499.229 633.002 -482.188C636.037 -465.145 624.677 -448.871 607.639 -445.837C590.598 -442.803 574.322 -454.157 571.288 -471.2ZM639.793 -483.397C636.759 -500.438 648.112 -516.717 665.15 -519.75C682.196 -522.785 698.471 -511.426 701.505 -494.385C704.539 -477.342 693.185 -461.068 676.139 -458.033C659.101 -455 642.827 -466.354 639.793 -483.397ZM708.295 -495.594C705.261 -512.635 716.617 -528.914 733.655 -531.948C750.701 -534.983 766.976 -523.623 770.01 -506.582C773.044 -489.539 761.69 -473.266 744.644 -470.231C727.606 -467.197 711.33 -478.551 708.295 -495.594ZM776.795 -507.79C773.761 -524.831 785.12 -541.111 802.163 -544.145C819.204 -547.18 835.481 -535.821 838.515 -518.78C841.549 -501.736 830.195 -485.463 813.152 -482.428C796.108 -479.394 779.83 -490.747 776.795 -507.79ZM845.3 -519.988C842.266 -537.029 853.625 -553.308 870.668 -556.343C887.709 -559.377 903.986 -548.018 907.017 -530.976C910.054 -513.934 898.698 -497.66 881.657 -494.626C864.613 -491.591 848.335 -502.944 845.3 -519.988ZM913.808 -532.186C910.774 -549.226 922.13 -565.505 939.171 -568.54C956.209 -571.573 972.488 -560.215 975.522 -543.174C978.557 -526.13 967.198 -509.856 950.159 -506.822C933.118 -503.788 916.842 -515.142 913.808 -532.186ZM982.308 -544.382C979.279 -561.424 990.632 -577.702 1007.67 -580.736C1024.72 -583.771 1040.99 -572.412 1044.03 -555.371C1047.06 -538.328 1035.71 -522.054 1018.66 -519.019C1001.62 -515.985 985.347 -527.339 982.308 -544.382ZM1050.81 -556.579C1047.78 -573.62 1059.13 -589.899 1076.18 -592.934C1093.22 -595.968 1109.5 -584.609 1112.53 -567.568C1115.57 -550.525 1104.21 -534.251 1087.17 -531.217C1070.12 -528.182 1053.85 -539.536 1050.81 -556.579ZM1119.32 -568.777C1116.29 -585.818 1127.64 -602.096 1144.68 -605.131C1161.72 -608.165 1178 -596.806 1181.03 -579.765C1184.07 -562.721 1172.71 -546.448 1155.67 -543.413C1138.63 -540.379 1122.35 -551.734 1119.32 -568.777ZM1187.82 -580.973C1184.79 -598.014 1196.14 -614.293 1213.19 -617.328C1230.23 -620.362 1246.5 -609.003 1249.54 -591.962C1252.57 -574.919 1241.22 -558.645 1224.18 -555.611C1207.13 -552.576 1190.85 -563.93 1187.82 -580.973ZM1297.35 -569.013C1295.85 -568.5 1294.29 -568.095 1292.68 -567.808C1275.64 -564.774 1259.36 -576.128 1256.33 -593.171C1253.29 -610.212 1264.65 -626.491 1281.69 -629.525C1283.3 -629.811 1284.9 -629.969 1286.49 -630.006L1297.35 -569.013ZM-275.854 -407.399C-273.011 -403.604 -270.989 -399.105 -270.102 -394.118C-269.214 -389.131 -269.558 -384.211 -270.917 -379.668L-275.854 -407.399ZM-209.726 -422.406C-205.634 -418.105 -202.715 -412.596 -201.596 -406.315C-198.562 -389.272 -209.918 -372.996 -226.959 -369.961C-244.003 -366.927 -260.277 -378.284 -263.311 -395.327C-264.429 -401.608 -263.591 -407.786 -261.237 -413.235L-209.726 -422.406ZM-141.219 -434.604C-137.126 -430.303 -134.21 -424.793 -133.091 -418.513C-130.057 -401.469 -141.416 -385.192 -158.457 -382.158C-175.498 -379.124 -191.774 -390.481 -194.809 -407.524C-195.927 -413.805 -195.091 -419.982 -192.735 -425.432L-141.219 -434.604ZM-72.7164 -446.801C-68.6265 -442.499 -65.7072 -436.99 -64.5889 -430.71C-61.5543 -413.666 -72.9082 -397.39 -89.9517 -394.356C-106.998 -391.321 -123.272 -402.677 -126.306 -419.721C-127.424 -426.002 -126.586 -432.179 -124.232 -437.629L-72.7164 -446.801ZM-4.214 -458.998C-0.121487 -454.696 2.79771 -449.188 3.91597 -442.907C6.95055 -425.863 -4.40584 -409.587 -21.4467 -406.553C-38.4902 -403.518 -54.7691 -414.874 -57.8037 -431.918C-58.9219 -438.198 -58.0836 -444.376 -55.7272 -449.826L-4.214 -458.998ZM64.2885 -471.195C68.381 -466.893 71.2975 -461.384 72.4158 -455.103C75.4504 -438.06 64.0965 -421.784 47.0557 -418.75C30.0149 -415.716 13.7385 -427.072 10.7039 -444.115C9.58561 -450.396 10.4213 -456.574 12.7777 -462.023L64.2885 -471.195ZM132.793 -483.392C136.886 -479.091 139.805 -473.582 140.923 -467.301C143.958 -450.258 132.599 -433.981 115.561 -430.947C98.5148 -427.912 82.2435 -439.269 79.2089 -456.313C78.0906 -462.593 78.929 -468.771 81.2828 -474.22L132.793 -483.392ZM201.299 -495.589C205.391 -491.288 208.31 -485.779 209.429 -479.498C212.463 -462.455 201.107 -446.178 184.063 -443.144C167.022 -440.11 150.746 -451.466 147.711 -468.51C146.593 -474.79 147.431 -480.968 149.788 -486.418L201.299 -495.589ZM269.806 -507.787C273.896 -503.485 276.813 -497.976 277.931 -491.695C280.966 -474.652 269.609 -458.375 252.568 -455.341C235.527 -452.307 219.251 -463.663 216.216 -480.707C215.098 -486.988 215.934 -493.165 218.29 -498.615L269.806 -507.787ZM406.809 -532.18C410.901 -527.879 413.82 -522.37 414.939 -516.089C417.973 -499.046 406.617 -482.769 389.576 -479.735C372.535 -476.701 356.259 -488.058 353.224 -505.101C352.106 -511.382 352.944 -517.56 355.3 -523.009L406.809 -532.18ZM475.316 -544.378C479.409 -540.077 482.325 -534.567 483.444 -528.287C486.478 -511.243 475.122 -494.967 458.081 -491.933C441.037 -488.898 424.764 -500.255 421.729 -517.298C420.611 -523.579 421.447 -529.756 423.803 -535.206L475.316 -544.378ZM543.819 -556.575C547.911 -552.273 550.828 -546.764 551.946 -540.483C554.983 -523.44 543.627 -507.164 526.586 -504.13C509.542 -501.095 493.266 -512.452 490.231 -529.495C489.113 -535.776 489.949 -541.953 492.305 -547.403L543.819 -556.575ZM612.321 -568.772C616.414 -564.47 619.333 -558.961 620.451 -552.681C623.486 -535.637 612.127 -519.36 595.088 -516.327C578.048 -513.293 561.771 -524.649 558.736 -541.692C557.618 -547.973 558.454 -554.151 560.81 -559.6L612.321 -568.772ZM680.824 -580.968C684.916 -576.667 687.835 -571.158 688.954 -564.878C691.988 -547.834 680.634 -531.558 663.588 -528.523C646.55 -525.489 630.276 -536.846 627.242 -553.89C626.123 -560.17 626.959 -566.348 629.315 -571.797L680.824 -580.968ZM749.331 -593.166C753.424 -588.865 756.34 -583.356 757.459 -577.075C760.493 -560.031 749.139 -543.755 732.093 -540.72C715.055 -537.687 698.779 -549.043 695.744 -566.087C694.626 -572.367 695.462 -578.545 697.818 -583.994L749.331 -593.166ZM817.836 -605.364C821.929 -601.062 824.845 -595.553 825.964 -589.272C828.998 -572.229 817.642 -555.952 800.601 -552.918C783.558 -549.884 767.279 -561.24 764.244 -578.283C763.126 -584.564 763.964 -590.742 766.32 -596.191L817.836 -605.364ZM886.339 -617.56C890.431 -613.259 893.348 -607.75 894.466 -601.469C897.503 -584.426 886.147 -568.15 869.106 -565.115C852.063 -562.081 835.784 -573.437 832.749 -590.48C831.631 -596.761 832.469 -602.939 834.825 -608.388L886.339 -617.56ZM954.841 -629.757C958.934 -625.456 961.853 -619.947 962.971 -613.666C966.006 -596.623 954.647 -580.346 937.609 -577.312C920.568 -574.278 904.291 -585.635 901.257 -602.678C900.138 -608.959 900.974 -615.136 903.33 -620.586L954.841 -629.757ZM1023.35 -641.955C1027.44 -637.653 1030.36 -632.144 1031.48 -625.864C1034.51 -608.82 1023.15 -592.544 1006.11 -589.509C989.07 -586.475 972.796 -597.832 969.757 -614.874C968.641 -621.156 969.477 -627.333 971.833 -632.783L1023.35 -641.955ZM1091.85 -654.152C1095.94 -649.85 1098.86 -644.341 1099.98 -638.06C1103.01 -621.017 1091.66 -604.741 1074.62 -601.706C1057.57 -598.671 1041.3 -610.028 1038.26 -627.072C1037.14 -633.352 1037.98 -639.53 1040.34 -644.98L1091.85 -654.152ZM1160.35 -666.349C1164.45 -662.047 1167.36 -656.538 1168.48 -650.257C1171.52 -633.214 1160.16 -616.938 1143.12 -613.903C1126.08 -610.869 1109.8 -622.226 1106.77 -639.27C1105.65 -645.55 1106.49 -651.728 1108.84 -657.177L1160.35 -666.349ZM1228.86 -678.546C1232.95 -674.245 1235.87 -668.735 1236.99 -662.455C1240.02 -645.411 1228.67 -629.135 1211.62 -626.101C1194.58 -623.066 1178.3 -634.422 1175.27 -651.466C1174.15 -657.747 1174.99 -663.924 1177.35 -669.374L1228.86 -678.546ZM1284.8 -639.5C1283.3 -638.99 1281.74 -638.584 1280.13 -638.297C1263.09 -635.263 1246.81 -646.62 1243.78 -663.664C1242.66 -669.944 1243.49 -676.122 1245.85 -681.571L1276.34 -687L1284.8 -639.5Z" fill="url(#paint0_linear_6880_224)" fill-opacity="0.03"/>
<defs>
<linearGradient id="paint0_linear_6880_224" x1="776.25" y1="1004.67" x2="499.67" y2="-548.714" gradientUnits="userSpaceOnUse">
<stop stop-color="#E4E7E8"/>
<stop offset="1" stop-color="#E4E7E8" stop-opacity="0"/>
</linearGradient>
</defs>
</svg>
