<svg width="318" height="429" viewBox="0 0 318 429" fill="none" xmlns="http://www.w3.org/2000/svg">
<rect width="318" height="429" fill="#F2F2F2"/>
<rect opacity="0.498717" x="33.3872" y="134" width="148.068" height="5" fill="#BDBDBD"/>
<rect opacity="0.2" x="33.3872" y="144" width="242.831" height="3" fill="#BDBDBD"/>
<rect opacity="0.2" x="33.3872" y="151" width="242.831" height="3" fill="#BDBDBD"/>
<rect opacity="0.2" x="33.3872" y="158" width="183.604" height="3" fill="#BDBDBD"/>
<rect opacity="0.498717" x="33.3872" y="45" width="144.899" height="5" fill="#BDBDBD"/>
<rect opacity="0.498717" x="33.3872" y="54" width="86.9396" height="5" fill="#BDBDBD"/>
<rect opacity="0.2" x="33.3872" y="88" width="242.831" height="3" fill="#BDBDBD"/>
<rect opacity="0.2" x="33.3872" y="81" width="242.831" height="3" fill="#BDBDBD"/>
<rect opacity="0.2" x="33.3872" y="74" width="242.831" height="3" fill="#BDBDBD"/>
<rect opacity="0.2" x="33.3872" y="95" width="145.699" height="3" fill="#BDBDBD"/>
<rect opacity="0.498717" x="33.3872" y="217" width="148.068" height="5" fill="#BDBDBD"/>
<rect opacity="0.2" x="33.3872" y="227" width="242.831" height="3" fill="#BDBDBD"/>
<rect opacity="0.2" x="33.3872" y="234" width="242.831" height="3" fill="#BDBDBD"/>
<rect opacity="0.2" x="33.3872" y="241" width="183.604" height="3" fill="#BDBDBD"/>
<rect opacity="0.2" x="33.3872" y="191" width="242.831" height="3" fill="#BDBDBD"/>
<rect opacity="0.2" x="33.3872" y="184" width="242.831" height="3" fill="#BDBDBD"/>
<rect opacity="0.2" x="33.3872" y="177" width="242.831" height="3" fill="#BDBDBD"/>
<rect opacity="0.2" x="33.3872" y="198" width="145.699" height="3" fill="#BDBDBD"/>
<rect opacity="0.498717" x="33.3872" y="111" width="49.9652" height="7" fill="#BDBDBD"/>
</svg>
