<svg width="36" height="36" viewBox="0 0 36 36" fill="none" xmlns="http://www.w3.org/2000/svg">
<path d="M11.2629 20.0638C12.147 21.2617 13.1628 22.321 14.4752 23.0705C15.9614 23.9199 17.5614 24.1761 19.249 24.098C20.0373 24.0602 20.2745 23.8546 20.3108 23.0691C20.3353 22.5309 20.3975 21.9941 20.6624 21.5105C20.9228 21.0362 21.3179 20.9464 21.7737 21.2415C22.0006 21.3906 22.1918 21.5772 22.3727 21.7769C22.8168 22.2616 23.2468 22.7638 23.7069 23.2326C24.2854 23.8217 24.9715 24.1687 25.8323 24.098L29.1676 24.0994C29.7044 24.0631 29.9836 23.405 29.6754 22.8041C29.4585 22.3846 29.1736 22.0114 28.8726 21.6493C28.191 20.8306 27.3878 20.1328 26.6284 19.3921C25.944 18.7239 25.9005 18.3359 26.4503 17.5649C27.0521 16.7225 27.6974 15.9137 28.3037 15.0759C28.8694 14.2932 29.4499 13.5116 29.7461 12.5755C29.9359 11.978 29.768 11.7147 29.1577 11.6091C29.0521 11.5918 28.9421 11.5918 28.8351 11.5918L25.2058 11.5872C24.7588 11.5801 24.5129 11.7755 24.355 12.1717C24.1409 12.7073 23.921 13.2427 23.666 13.7578C23.0903 14.9299 22.4462 16.0628 21.5434 17.0207C21.3437 17.2317 21.1222 17.4995 20.7897 17.3896C20.3744 17.2377 20.2515 16.5521 20.2586 16.3206L20.2555 12.1314C20.1748 11.5341 20.0413 11.2663 19.4469 11.1501H15.6774C15.1755 11.1501 14.9222 11.3458 14.653 11.6596C14.4996 11.8423 14.4516 11.9593 14.7703 12.02C15.3951 12.1385 15.7498 12.5437 15.8424 13.1705C15.9915 14.1733 15.9813 15.1801 15.8946 16.1857C15.8699 16.4794 15.8194 16.7719 15.7032 17.0468C15.5212 17.4794 15.2258 17.5663 14.8396 17.3002C14.4911 17.0599 14.2452 16.7214 14.0032 16.3814C13.0989 15.1034 12.3784 13.7263 11.7894 12.279C11.6202 11.8607 11.3265 11.6077 10.8837 11.6003C9.79546 11.583 8.70604 11.5804 7.61633 11.6017C6.96228 11.6134 6.76689 11.9317 7.0347 12.5264C8.21983 15.1642 9.53958 17.7282 11.2629 20.0638Z" fill="#3F88C5"/>
<path d="M0.73877 0V35.2614H36.0002V0H0.73877ZM33.819 33.0803H2.91989V2.18112H33.819V33.0803Z" fill="#3F88C5"/>
</svg>
